<svg width="98" height="123" viewBox="0 0 98 123" fill="none" xmlns="http://www.w3.org/2000/svg">
<path d="M1 118.621C23.749 103.578 73.2637 131.179 97 118.621" stroke="black" stroke-width="2"/>
<path d="M21.782 33.894C20.774 33.894 19.654 33.684 18.422 33.264C17.218 32.844 15.972 32.326 14.684 31.71C13.396 31.122 12.122 30.548 10.862 29.988C10.162 30.772 9.434 31.374 8.678 31.794C7.922 32.242 7.096 32.466 6.2 32.466C5.304 32.466 4.548 32.256 3.932 31.836C3.288 31.416 2.812 30.912 2.504 30.324C2.168 29.764 2 29.26 2 28.812C2 28.308 2.238 27.874 2.714 27.51C3.162 27.146 3.946 26.964 5.066 26.964C5.794 26.964 6.592 27.048 7.46 27.216C8.356 27.384 9.28 27.594 10.232 27.846C10.904 26.67 11.52 25.298 12.08 23.73C12.668 22.162 13.242 20.496 13.802 18.732C14.362 16.968 14.922 15.204 15.482 13.44C14.194 13.02 13.172 12.404 12.416 11.592C11.688 10.78 11.324 9.898 11.324 8.946C11.324 8.218 11.562 7.49 12.038 6.762C12.514 6.006 13.144 5.628 13.928 5.628C13.732 5.908 13.592 6.314 13.508 6.846C13.424 7.378 13.382 7.84 13.382 8.232C13.382 9.296 13.606 10.192 14.054 10.92C14.502 11.62 15.076 12.166 15.776 12.558C16.504 10.318 17.288 8.246 18.128 6.342C18.996 4.438 19.976 2.912 21.068 1.764C22.16 0.588 23.406 0 24.806 0C25.366 0 25.954 0.126 26.57 0.378C27.214 0.63 27.76 1.064 28.208 1.68C28.656 2.296 28.88 3.164 28.88 4.284C28.88 5.236 28.684 6.272 28.292 7.392C27.9 8.484 27.298 9.534 26.486 10.542C25.674 11.522 24.638 12.334 23.378 12.978C22.118 13.594 20.634 13.916 18.926 13.944H18.128C17.568 15.652 16.966 17.388 16.322 19.152C15.706 20.916 15.048 22.596 14.348 24.192C13.648 25.76 12.892 27.16 12.08 28.392C14.012 28.98 15.958 29.568 17.918 30.156C19.906 30.716 21.67 30.996 23.21 30.996C24.33 30.996 25.324 30.772 26.192 30.324C25.744 31.612 25.142 32.522 24.386 33.054C23.658 33.614 22.79 33.894 21.782 33.894ZM18.38 13.146C19.64 13.146 20.774 12.796 21.782 12.096C22.818 11.368 23.686 10.472 24.386 9.408C25.114 8.316 25.66 7.21 26.024 6.09C26.416 4.97 26.612 3.99 26.612 3.15C26.612 2.338 26.458 1.792 26.15 1.512C25.842 1.204 25.492 1.05 25.1 1.05C24.232 1.05 23.42 1.61 22.664 2.73C21.908 3.85 21.18 5.334 20.48 7.182C19.808 9.002 19.108 10.99 18.38 13.146ZM6.032 31.248C6.648 31.248 7.222 31.08 7.754 30.744C8.314 30.408 8.818 29.932 9.266 29.316C8.398 28.952 7.544 28.658 6.704 28.434C5.892 28.182 5.15 28.056 4.478 28.056C3.946 28.056 3.582 28.126 3.386 28.266C3.19 28.406 3.092 28.602 3.092 28.854C3.092 29.33 3.372 29.848 3.932 30.408C4.464 30.968 5.164 31.248 6.032 31.248Z" fill="black"/>
<path d="M32.9819 32.088C31.2739 32.088 29.9859 31.612 29.1179 30.66C28.2779 29.736 27.8579 28.588 27.8579 27.216C27.8579 25.956 28.1659 24.626 28.7819 23.226C29.4259 21.826 30.2659 20.51 31.3019 19.278C32.3659 18.046 33.5279 17.052 34.7879 16.296C36.0479 15.512 37.2939 15.12 38.5259 15.12C39.1699 15.12 39.7579 15.288 40.2899 15.624C40.8499 15.96 41.1299 16.646 41.1299 17.682C41.1299 18.746 40.8079 19.754 40.1639 20.706C39.5479 21.63 38.7219 22.456 37.6859 23.184C36.6779 23.912 35.5579 24.514 34.3259 24.99C33.1219 25.438 31.9179 25.718 30.7139 25.83C30.6579 26.11 30.6159 26.376 30.5879 26.628C30.5599 26.88 30.5459 27.118 30.5459 27.342C30.5459 28.21 30.7699 29.022 31.2179 29.778C31.6939 30.506 32.5759 30.87 33.8639 30.87C35.0679 30.87 36.2579 30.534 37.4339 29.862C38.6099 29.162 39.7019 28.252 40.7099 27.132C41.7179 26.012 42.5719 24.78 43.2719 23.436L43.7759 23.814C43.0199 25.494 42.0539 26.95 40.8779 28.182C39.7299 29.414 38.4699 30.366 37.0979 31.038C35.7539 31.738 34.3819 32.088 32.9819 32.088ZM30.9239 25.032C31.6799 24.78 32.5339 24.416 33.4859 23.94C34.4379 23.436 35.3479 22.848 36.2159 22.176C37.1119 21.504 37.8399 20.762 38.3999 19.95C38.9879 19.138 39.2819 18.284 39.2819 17.388C39.2819 17.08 39.2259 16.842 39.1139 16.674C39.0019 16.506 38.7639 16.422 38.3999 16.422C37.7279 16.422 37.0139 16.688 36.2579 17.22C35.5019 17.724 34.7739 18.396 34.0739 19.236C33.3739 20.076 32.7439 21 32.1839 22.008C31.6239 23.016 31.2039 24.024 30.9239 25.032Z" fill="black"/>
<path d="M46.0022 32.172C43.5102 32.172 42.2642 30.786 42.2642 28.014C42.2642 26.782 42.4882 25.27 42.9362 23.478C43.4122 21.658 44.0002 19.796 44.7002 17.892C44.4202 17.836 44.1542 17.794 43.9022 17.766C43.6502 17.71 43.4122 17.64 43.1882 17.556V16.8C43.4122 16.828 43.6782 16.856 43.9862 16.884C44.2942 16.912 44.6442 16.94 45.0362 16.968C45.6242 15.456 46.2542 14 46.9262 12.6C47.5982 11.172 48.2562 9.912 48.9002 8.82C49.5722 7.7 50.2022 6.818 50.7902 6.174C51.4062 5.502 51.9242 5.166 52.3442 5.166C52.5682 5.166 52.7642 5.25 52.9322 5.418C53.1282 5.558 53.2262 5.782 53.2262 6.09C53.2262 6.566 52.9322 7.35 52.3442 8.442C51.7562 9.506 51.0282 10.78 50.1602 12.264C49.2922 13.748 48.4522 15.358 47.6402 17.094H49.1942C50.1182 17.094 51.0842 17.08 52.0922 17.052C53.1282 17.024 54.1642 16.954 55.2002 16.842V17.598C52.1482 17.934 49.6842 18.102 47.8082 18.102H47.1782C46.5342 19.586 45.9882 21.112 45.5402 22.68C45.0922 24.248 44.8682 25.774 44.8682 27.258C44.8682 28.462 45.0502 29.33 45.4142 29.862C45.7782 30.366 46.3802 30.618 47.2202 30.618C48.6762 30.618 50.1042 29.974 51.5042 28.686C52.9042 27.398 54.1362 25.648 55.2002 23.436L55.7462 23.856C55.0742 25.424 54.2202 26.838 53.1842 28.098C52.1762 29.358 51.0562 30.352 49.8242 31.08C48.5922 31.808 47.3182 32.172 46.0022 32.172Z" fill="black"/>
<path d="M57.9788 32.172C55.4868 32.172 54.2408 30.786 54.2408 28.014C54.2408 26.782 54.4648 25.27 54.9128 23.478C55.3888 21.658 55.9768 19.796 56.6768 17.892C56.3968 17.836 56.1308 17.794 55.8788 17.766C55.6268 17.71 55.3888 17.64 55.1648 17.556V16.8C55.3888 16.828 55.6548 16.856 55.9628 16.884C56.2708 16.912 56.6208 16.94 57.0128 16.968C57.6008 15.456 58.2308 14 58.9028 12.6C59.5748 11.172 60.2328 9.912 60.8768 8.82C61.5488 7.7 62.1788 6.818 62.7668 6.174C63.3828 5.502 63.9008 5.166 64.3208 5.166C64.5448 5.166 64.7408 5.25 64.9088 5.418C65.1048 5.558 65.2028 5.782 65.2028 6.09C65.2028 6.566 64.9088 7.35 64.3208 8.442C63.7328 9.506 63.0048 10.78 62.1368 12.264C61.2688 13.748 60.4288 15.358 59.6168 17.094H61.1708C62.0948 17.094 63.0608 17.08 64.0688 17.052C65.1048 17.024 66.1408 16.954 67.1768 16.842V17.598C64.1248 17.934 61.6608 18.102 59.7848 18.102H59.1548C58.5108 19.586 57.9648 21.112 57.5168 22.68C57.0688 24.248 56.8448 25.774 56.8448 27.258C56.8448 28.462 57.0268 29.33 57.3908 29.862C57.7548 30.366 58.3568 30.618 59.1968 30.618C60.6528 30.618 62.0808 29.974 63.4808 28.686C64.8808 27.398 66.1128 25.648 67.1768 23.436L67.7228 23.856C67.0508 25.424 66.1968 26.838 65.1608 28.098C64.1528 29.358 63.0328 30.352 61.8008 31.08C60.5688 31.808 59.2948 32.172 57.9788 32.172Z" fill="black"/>
<path d="M70.9213 32.088C69.2133 32.088 67.9253 31.612 67.0573 30.66C66.2173 29.736 65.7973 28.588 65.7973 27.216C65.7973 25.956 66.1053 24.626 66.7213 23.226C67.3653 21.826 68.2053 20.51 69.2413 19.278C70.3053 18.046 71.4673 17.052 72.7273 16.296C73.9873 15.512 75.2333 15.12 76.4653 15.12C77.1093 15.12 77.6973 15.288 78.2293 15.624C78.7893 15.96 79.0693 16.646 79.0693 17.682C79.0693 18.746 78.7473 19.754 78.1033 20.706C77.4874 21.63 76.6613 22.456 75.6253 23.184C74.6173 23.912 73.4973 24.514 72.2653 24.99C71.0613 25.438 69.8573 25.718 68.6533 25.83C68.5973 26.11 68.5553 26.376 68.5273 26.628C68.4993 26.88 68.4853 27.118 68.4853 27.342C68.4853 28.21 68.7093 29.022 69.1573 29.778C69.6333 30.506 70.5153 30.87 71.8033 30.87C73.0073 30.87 74.1973 30.534 75.3733 29.862C76.5493 29.162 77.6413 28.252 78.6493 27.132C79.6573 26.012 80.5113 24.78 81.2113 23.436L81.7153 23.814C80.9594 25.494 79.9933 26.95 78.8173 28.182C77.6693 29.414 76.4093 30.366 75.0373 31.038C73.6933 31.738 72.3213 32.088 70.9213 32.088ZM68.8633 25.032C69.6193 24.78 70.4733 24.416 71.4253 23.94C72.3773 23.436 73.2873 22.848 74.1553 22.176C75.0513 21.504 75.7794 20.762 76.3393 19.95C76.9273 19.138 77.2213 18.284 77.2213 17.388C77.2213 17.08 77.1653 16.842 77.0533 16.674C76.9413 16.506 76.7033 16.422 76.3393 16.422C75.6674 16.422 74.9533 16.688 74.1973 17.22C73.4413 17.724 72.7133 18.396 72.0133 19.236C71.3133 20.076 70.6833 21 70.1233 22.008C69.5633 23.016 69.1433 24.024 68.8633 25.032Z" fill="black"/>
<path d="M87.6377 31.332C86.6857 31.332 85.9297 31.08 85.3697 30.576C84.8377 30.072 84.5717 29.414 84.5717 28.602C84.5717 27.762 84.7677 26.88 85.1597 25.956C85.5517 25.032 85.9297 24.122 86.2937 23.226C86.6857 22.302 86.8817 21.476 86.8817 20.748C86.8817 19.852 86.6157 19.194 86.0837 18.774C85.5797 18.326 85.0617 17.92 84.5297 17.556C83.8857 19.208 83.2137 20.776 82.5137 22.26C81.8137 23.744 81.2397 24.864 80.7917 25.62L80.4137 24.906C80.8057 24.178 81.3097 23.114 81.9257 21.714C82.5697 20.314 83.1997 18.718 83.8157 16.926C83.5357 16.646 83.3957 16.31 83.3957 15.918C83.3957 15.078 83.6337 14.392 84.1097 13.86C84.5857 13.328 84.9357 13.062 85.1597 13.062C85.4677 13.062 85.6357 13.202 85.6637 13.482C85.7197 13.734 85.7477 13.93 85.7477 14.07C85.7477 14.21 85.6637 14.49 85.4957 14.91C85.3557 15.302 85.2857 15.54 85.2857 15.624C85.2857 16.016 85.4957 16.38 85.9157 16.716C86.3637 17.024 86.8677 17.388 87.4277 17.808C87.9877 18.2 88.4777 18.69 88.8977 19.278C89.3457 19.838 89.5697 20.566 89.5697 21.462C89.5697 22.302 89.3877 23.156 89.0237 24.024C88.6877 24.892 88.3377 25.718 87.9737 26.502C87.6377 27.286 87.4697 27.972 87.4697 28.56C87.4697 29.064 87.5957 29.4 87.8477 29.568C88.0997 29.736 88.3937 29.82 88.7297 29.82C89.4017 29.82 90.0877 29.61 90.7877 29.19C91.5157 28.77 92.2157 28.238 92.8877 27.594C93.5597 26.95 94.1617 26.278 94.6937 25.578C95.2257 24.85 95.6177 24.178 95.8697 23.562L96.4157 23.982C95.8837 25.158 95.1557 26.32 94.2317 27.468C93.3077 28.588 92.2717 29.512 91.1237 30.24C90.0037 30.968 88.8417 31.332 87.6377 31.332Z" fill="black"/>
<path d="M29.465 83.852C28.821 83.852 28.135 83.726 27.407 83.474C26.707 83.222 26.119 82.704 25.643 81.92C25.167 81.136 24.929 79.96 24.929 78.392C24.929 77.3 25.055 76.222 25.307 75.158C25.559 74.066 25.923 73.156 26.399 72.428C26.903 71.7 27.477 71.336 28.121 71.336C28.457 71.336 28.849 71.448 29.297 71.672C28.289 74.22 27.785 76.46 27.785 78.392C27.785 79.652 28.009 80.632 28.457 81.332C28.905 82.032 29.563 82.382 30.431 82.382C31.159 82.382 31.803 82.074 32.363 81.458C32.951 80.842 33.553 79.68 34.169 77.972C34.6171 76.74 35.079 75.256 35.555 73.52C36.059 71.756 36.549 69.88 37.025 67.892C37.529 65.876 38.005 63.888 38.453 61.928C38.9011 59.94 39.307 58.106 39.671 56.426C40.035 54.746 40.315 53.346 40.511 52.226C39.139 52.226 37.977 52.254 37.025 52.31C36.101 52.366 35.261 52.45 34.505 52.562C33.749 52.674 32.923 52.842 32.027 53.066C32.167 52.114 32.769 51.386 33.833 50.882C34.925 50.35 36.605 50.084 38.873 50.084C39.993 50.084 41.127 50.14 42.275 50.252C43.423 50.364 44.473 50.49 45.425 50.63C46.405 50.742 47.147 50.854 47.6511 50.966C47.343 51.498 46.8391 51.834 46.139 51.974C45.439 52.114 44.8651 52.184 44.417 52.184C43.857 52.184 43.3251 52.198 42.821 52.226C42.3451 52.226 41.883 52.226 41.435 52.226C41.743 52.45 41.967 52.758 42.107 53.15C42.247 53.542 42.317 53.892 42.317 54.2C42.317 54.564 42.219 55.376 42.023 56.636C41.827 57.868 41.5471 59.366 41.183 61.13C40.819 62.894 40.385 64.77 39.881 66.758C39.377 68.746 38.831 70.692 38.243 72.596C37.655 74.5 37.025 76.194 36.353 77.678C35.625 79.358 34.883 80.632 34.127 81.5C33.399 82.396 32.643 83.012 31.859 83.348C31.103 83.684 30.305 83.852 29.465 83.852Z" fill="black"/>
<path d="M45.0841 81.584C43.8801 81.584 43.0261 81.206 42.5221 80.45C42.0181 79.722 41.7661 78.826 41.7661 77.762C41.7661 76.894 41.9061 75.998 42.1861 75.074C42.4661 74.15 42.8301 73.282 43.2781 72.47C43.7541 71.658 44.2721 71 44.8321 70.496C45.4201 69.992 46.0081 69.74 46.5961 69.74C46.8481 69.74 47.1421 69.81 47.4781 69.95C47.2261 70.174 46.9181 70.594 46.5541 71.21C46.2181 71.798 45.8961 72.484 45.5881 73.268C45.2801 74.024 45.0141 74.78 44.7901 75.536C44.5941 76.292 44.4961 76.936 44.4961 77.468C44.4961 78.308 44.6361 78.924 44.9161 79.316C45.1961 79.68 45.5601 79.862 46.0081 79.862C46.5961 79.862 47.2961 79.554 48.1081 78.938C48.9201 78.294 49.7181 77.482 50.5021 76.502C49.7181 75.858 49.1021 75.018 48.6541 73.982C48.2341 72.918 48.0241 71.84 48.0241 70.748C48.0241 69.824 48.1781 68.956 48.4861 68.144C48.8221 67.332 49.2981 66.688 49.9141 66.212C50.5301 65.708 51.2721 65.456 52.1401 65.456C53.2881 65.456 54.0581 65.764 54.4501 66.38C54.8421 66.996 55.0381 67.766 55.0381 68.69C55.0381 69.782 54.7721 71 54.2401 72.344C53.7081 73.66 53.0361 74.934 52.2241 76.166C52.7281 76.446 53.2601 76.586 53.8201 76.586C54.4641 76.586 55.2481 76.376 56.1721 75.956C57.0961 75.508 57.8101 74.71 58.3141 73.562L58.8181 73.982C58.2581 75.298 57.4601 76.236 56.4241 76.796C55.4161 77.328 54.4501 77.594 53.5261 77.594C52.7701 77.594 52.0981 77.454 51.5101 77.174C50.5581 78.434 49.5081 79.484 48.3601 80.324C47.2401 81.164 46.1481 81.584 45.0841 81.584ZM51.2581 75.41C51.9581 74.374 52.5321 73.296 52.9801 72.176C53.4561 71.028 53.6941 69.95 53.6941 68.942C53.6941 68.13 53.5681 67.542 53.3161 67.178C53.0921 66.786 52.7981 66.59 52.4341 66.59C51.8741 66.59 51.3001 66.996 50.7121 67.808C50.1241 68.62 49.8301 69.642 49.8301 70.874C49.8301 71.686 49.9421 72.512 50.1661 73.352C50.4181 74.164 50.7821 74.85 51.2581 75.41Z" fill="black"/>
<path d="M59.332 92C58.632 92 58.016 91.804 57.484 91.412C56.952 91.048 56.686 90.502 56.686 89.774C56.686 88.57 57.064 87.534 57.82 86.666C58.604 85.798 59.612 85 60.844 84.272C62.104 83.572 63.434 82.872 64.834 82.172C65.226 81.136 65.618 79.988 66.01 78.728C66.43 77.44 66.822 76.026 67.186 74.486C66.29 75.942 65.324 77.202 64.288 78.266C63.28 79.302 62.202 79.82 61.054 79.82C60.242 79.82 59.472 79.554 58.744 79.022C58.044 78.462 57.694 77.594 57.694 76.418C57.694 75.634 57.82 74.724 58.072 73.688C58.352 72.652 58.688 71.644 59.08 70.664C59.472 69.684 59.878 68.872 60.298 68.228C60.718 67.584 61.082 67.262 61.39 67.262C61.502 67.262 61.698 67.304 61.978 67.388C62.286 67.472 62.566 67.598 62.818 67.766C63.098 67.906 63.238 68.06 63.238 68.228C62.986 68.592 62.706 69.11 62.398 69.782C62.09 70.454 61.782 71.21 61.474 72.05C61.194 72.862 60.956 73.66 60.76 74.444C60.564 75.228 60.466 75.9 60.466 76.46C60.466 76.964 60.578 77.37 60.802 77.678C61.026 77.986 61.418 78.14 61.978 78.14C62.51 78.14 63.098 77.888 63.742 77.384C64.414 76.852 65.072 76.18 65.716 75.368C66.388 74.556 67.004 73.688 67.564 72.764C67.648 72.456 67.718 72.148 67.774 71.84C67.858 71.504 67.928 71.168 67.984 70.832C68.068 70.44 68.264 69.992 68.572 69.488C68.908 68.956 69.426 68.69 70.126 68.69C70.378 68.69 70.672 68.732 71.008 68.816C71.008 69.264 70.868 70.104 70.588 71.336C70.336 72.54 69.958 73.954 69.454 75.578C68.978 77.202 68.404 78.868 67.732 80.576C69.048 80.072 70.336 79.246 71.596 78.098C72.856 76.922 73.878 75.368 74.662 73.436L75.208 73.856C74.788 75.2 74.144 76.376 73.276 77.384C72.436 78.364 71.484 79.218 70.42 79.946C69.356 80.646 68.306 81.234 67.27 81.71C66.542 83.502 65.744 85.182 64.876 86.75C64.036 88.318 63.14 89.578 62.188 90.53C61.264 91.51 60.312 92 59.332 92ZM59.122 90.656C59.542 90.656 60.242 90.096 61.222 88.976C62.23 87.884 63.294 85.952 64.414 83.18C63.266 83.796 62.202 84.398 61.222 84.986C60.242 85.602 59.458 86.26 58.87 86.96C58.282 87.66 57.988 88.472 57.988 89.396C57.988 89.62 58.072 89.886 58.24 90.194C58.408 90.502 58.702 90.656 59.122 90.656Z" fill="black"/>
</svg>
