<svg width="50" height="62" viewBox="0 0 50 62" fill="none" xmlns="http://www.w3.org/2000/svg">
<path d="M1 59.3103C12.3745 51.7889 37.1319 65.5894 49 59.3103" stroke="black"/>
<path d="M10.891 16.947C10.387 16.947 9.827 16.842 9.211 16.632C8.609 16.422 7.986 16.163 7.342 15.855C6.698 15.561 6.061 15.274 5.431 14.994C5.081 15.386 4.717 15.687 4.339 15.897C3.961 16.121 3.548 16.233 3.1 16.233C2.652 16.233 2.274 16.128 1.966 15.918C1.644 15.708 1.406 15.456 1.252 15.162C1.084 14.882 1 14.63 1 14.406C1 14.154 1.119 13.937 1.357 13.755C1.581 13.573 1.973 13.482 2.533 13.482C2.897 13.482 3.296 13.524 3.73 13.608C4.178 13.692 4.64 13.797 5.116 13.923C5.452 13.335 5.76 12.649 6.04 11.865C6.334 11.081 6.621 10.248 6.901 9.366C7.181 8.484 7.461 7.602 7.741 6.72C7.097 6.51 6.586 6.202 6.208 5.796C5.844 5.39 5.662 4.949 5.662 4.473C5.662 4.109 5.781 3.745 6.019 3.381C6.257 3.003 6.572 2.814 6.964 2.814C6.866 2.954 6.796 3.157 6.754 3.423C6.712 3.689 6.691 3.92 6.691 4.116C6.691 4.648 6.803 5.096 7.027 5.46C7.251 5.81 7.538 6.083 7.888 6.279C8.252 5.159 8.644 4.123 9.064 3.171C9.498 2.219 9.988 1.456 10.534 0.882C11.08 0.294 11.703 0 12.403 0C12.683 0 12.977 0.063 13.285 0.189C13.607 0.315 13.88 0.532 14.104 0.84C14.328 1.148 14.44 1.582 14.44 2.142C14.44 2.618 14.342 3.136 14.146 3.696C13.95 4.242 13.649 4.767 13.243 5.271C12.837 5.761 12.319 6.167 11.689 6.489C11.059 6.797 10.317 6.958 9.463 6.972H9.064C8.784 7.826 8.483 8.694 8.161 9.576C7.853 10.458 7.524 11.298 7.174 12.096C6.824 12.88 6.446 13.58 6.04 14.196C7.006 14.49 7.979 14.784 8.959 15.078C9.953 15.358 10.835 15.498 11.605 15.498C12.165 15.498 12.662 15.386 13.096 15.162C12.872 15.806 12.571 16.261 12.193 16.527C11.829 16.807 11.395 16.947 10.891 16.947ZM9.19 6.573C9.82 6.573 10.387 6.398 10.891 6.048C11.409 5.684 11.843 5.236 12.193 4.704C12.557 4.158 12.83 3.605 13.012 3.045C13.208 2.485 13.306 1.995 13.306 1.575C13.306 1.169 13.229 0.896 13.075 0.756C12.921 0.602 12.746 0.524999 12.55 0.524999C12.116 0.524999 11.71 0.805 11.332 1.365C10.954 1.925 10.59 2.667 10.24 3.591C9.904 4.501 9.554 5.495 9.19 6.573ZM3.016 15.624C3.324 15.624 3.611 15.54 3.877 15.372C4.157 15.204 4.409 14.966 4.633 14.658C4.199 14.476 3.772 14.329 3.352 14.217C2.946 14.091 2.575 14.028 2.239 14.028C1.973 14.028 1.791 14.063 1.693 14.133C1.595 14.203 1.546 14.301 1.546 14.427C1.546 14.665 1.686 14.924 1.966 15.204C2.232 15.484 2.582 15.624 3.016 15.624Z" fill="black"/>
<path d="M16.4909 16.044C15.6369 16.044 14.9929 15.806 14.5589 15.33C14.1389 14.868 13.9289 14.294 13.9289 13.608C13.9289 12.978 14.0829 12.313 14.3909 11.613C14.7129 10.913 15.1329 10.255 15.6509 9.639C16.1829 9.023 16.7639 8.526 17.3939 8.148C18.0239 7.756 18.6469 7.56 19.2629 7.56C19.5849 7.56 19.8789 7.644 20.1449 7.812C20.4249 7.98 20.5649 8.323 20.5649 8.841C20.5649 9.373 20.4039 9.877 20.0819 10.353C19.7739 10.815 19.3609 11.228 18.8429 11.592C18.3389 11.956 17.7789 12.257 17.1629 12.495C16.5609 12.719 15.9589 12.859 15.3569 12.915C15.3289 13.055 15.3079 13.188 15.2939 13.314C15.2799 13.44 15.2729 13.559 15.2729 13.671C15.2729 14.105 15.3849 14.511 15.6089 14.889C15.8469 15.253 16.2879 15.435 16.9319 15.435C17.5339 15.435 18.1289 15.267 18.7169 14.931C19.3049 14.581 19.8509 14.126 20.3549 13.566C20.8589 13.006 21.2859 12.39 21.6359 11.718L21.8879 11.907C21.5099 12.747 21.0269 13.475 20.4389 14.091C19.8649 14.707 19.2349 15.183 18.5489 15.519C17.8769 15.869 17.1909 16.044 16.4909 16.044ZM15.4619 12.516C15.8399 12.39 16.2669 12.208 16.7429 11.97C17.2189 11.718 17.6739 11.424 18.1079 11.088C18.5559 10.752 18.9199 10.381 19.1999 9.975C19.4939 9.569 19.6409 9.142 19.6409 8.694C19.6409 8.54 19.6129 8.421 19.5569 8.337C19.5009 8.253 19.3819 8.211 19.1999 8.211C18.8639 8.211 18.5069 8.344 18.1289 8.61C17.7509 8.862 17.3869 9.198 17.0369 9.618C16.6869 10.038 16.3719 10.5 16.0919 11.004C15.8119 11.508 15.6019 12.012 15.4619 12.516Z" fill="black"/>
<path d="M23.0011 16.086C21.7551 16.086 21.1321 15.393 21.1321 14.007C21.1321 13.391 21.2441 12.635 21.4681 11.739C21.7061 10.829 22.0001 9.898 22.3501 8.946C22.2101 8.918 22.0771 8.897 21.9511 8.883C21.8251 8.855 21.7061 8.82 21.5941 8.778V8.4C21.7061 8.414 21.8391 8.428 21.9931 8.442C22.1471 8.456 22.3221 8.47 22.5181 8.484C22.8121 7.728 23.1271 7 23.4631 6.3C23.7991 5.586 24.1281 4.956 24.4501 4.41C24.7861 3.85 25.1011 3.409 25.3951 3.087C25.7031 2.751 25.9621 2.583 26.1721 2.583C26.2841 2.583 26.3821 2.625 26.4661 2.709C26.5641 2.779 26.6131 2.891 26.6131 3.045C26.6131 3.283 26.4661 3.675 26.1721 4.221C25.8781 4.753 25.5141 5.39 25.0801 6.132C24.6461 6.874 24.2261 7.679 23.8201 8.547H24.5971C25.0591 8.547 25.5421 8.54 26.0461 8.526C26.5641 8.512 27.0821 8.477 27.6001 8.421V8.799C26.0741 8.967 24.8421 9.051 23.9041 9.051H23.5891C23.2671 9.793 22.9941 10.556 22.7701 11.34C22.5461 12.124 22.4341 12.887 22.4341 13.629C22.4341 14.231 22.5251 14.665 22.7071 14.931C22.8891 15.183 23.1901 15.309 23.6101 15.309C24.3381 15.309 25.0521 14.987 25.7521 14.343C26.4521 13.699 27.0681 12.824 27.6001 11.718L27.8731 11.928C27.5371 12.712 27.1101 13.419 26.5921 14.049C26.0881 14.679 25.5281 15.176 24.9121 15.54C24.2961 15.904 23.6591 16.086 23.0011 16.086Z" fill="black"/>
<path d="M28.9894 16.086C27.7434 16.086 27.1204 15.393 27.1204 14.007C27.1204 13.391 27.2324 12.635 27.4564 11.739C27.6944 10.829 27.9884 9.898 28.3384 8.946C28.1984 8.918 28.0654 8.897 27.9394 8.883C27.8134 8.855 27.6944 8.82 27.5824 8.778V8.4C27.6944 8.414 27.8274 8.428 27.9814 8.442C28.1354 8.456 28.3104 8.47 28.5064 8.484C28.8004 7.728 29.1154 7 29.4514 6.3C29.7874 5.586 30.1164 4.956 30.4384 4.41C30.7744 3.85 31.0894 3.409 31.3834 3.087C31.6914 2.751 31.9504 2.583 32.1604 2.583C32.2724 2.583 32.3704 2.625 32.4544 2.709C32.5524 2.779 32.6014 2.891 32.6014 3.045C32.6014 3.283 32.4544 3.675 32.1604 4.221C31.8664 4.753 31.5024 5.39 31.0684 6.132C30.6344 6.874 30.2144 7.679 29.8084 8.547H30.5854C31.0474 8.547 31.5304 8.54 32.0344 8.526C32.5524 8.512 33.0704 8.477 33.5884 8.421V8.799C32.0624 8.967 30.8304 9.051 29.8924 9.051H29.5774C29.2554 9.793 28.9824 10.556 28.7584 11.34C28.5344 12.124 28.4224 12.887 28.4224 13.629C28.4224 14.231 28.5134 14.665 28.6954 14.931C28.8774 15.183 29.1784 15.309 29.5984 15.309C30.3264 15.309 31.0404 14.987 31.7404 14.343C32.4404 13.699 33.0564 12.824 33.5884 11.718L33.8614 11.928C33.5254 12.712 33.0984 13.419 32.5804 14.049C32.0764 14.679 31.5164 15.176 30.9004 15.54C30.2844 15.904 29.6474 16.086 28.9894 16.086Z" fill="black"/>
<path d="M35.4607 16.044C34.6067 16.044 33.9627 15.806 33.5287 15.33C33.1087 14.868 32.8987 14.294 32.8987 13.608C32.8987 12.978 33.0527 12.313 33.3607 11.613C33.6827 10.913 34.1027 10.255 34.6207 9.639C35.1527 9.023 35.7337 8.526 36.3637 8.148C36.9937 7.756 37.6167 7.56 38.2327 7.56C38.5547 7.56 38.8487 7.644 39.1147 7.812C39.3947 7.98 39.5347 8.323 39.5347 8.841C39.5347 9.373 39.3737 9.877 39.0517 10.353C38.7437 10.815 38.3307 11.228 37.8127 11.592C37.3087 11.956 36.7487 12.257 36.1327 12.495C35.5307 12.719 34.9287 12.859 34.3267 12.915C34.2987 13.055 34.2777 13.188 34.2637 13.314C34.2497 13.44 34.2427 13.559 34.2427 13.671C34.2427 14.105 34.3547 14.511 34.5787 14.889C34.8167 15.253 35.2577 15.435 35.9017 15.435C36.5037 15.435 37.0987 15.267 37.6867 14.931C38.2747 14.581 38.8207 14.126 39.3247 13.566C39.8287 13.006 40.2557 12.39 40.6057 11.718L40.8577 11.907C40.4797 12.747 39.9967 13.475 39.4087 14.091C38.8347 14.707 38.2047 15.183 37.5187 15.519C36.8467 15.869 36.1607 16.044 35.4607 16.044ZM34.4317 12.516C34.8097 12.39 35.2367 12.208 35.7127 11.97C36.1887 11.718 36.6437 11.424 37.0777 11.088C37.5257 10.752 37.8897 10.381 38.1697 9.975C38.4637 9.569 38.6107 9.142 38.6107 8.694C38.6107 8.54 38.5827 8.421 38.5267 8.337C38.4707 8.253 38.3517 8.211 38.1697 8.211C37.8337 8.211 37.4767 8.344 37.0987 8.61C36.7207 8.862 36.3567 9.198 36.0067 9.618C35.6567 10.038 35.3417 10.5 35.0617 11.004C34.7817 11.508 34.5717 12.012 34.4317 12.516Z" fill="black"/>
<path d="M43.8188 15.666C43.3428 15.666 42.9648 15.54 42.6848 15.288C42.4188 15.036 42.2858 14.707 42.2858 14.301C42.2858 13.881 42.3838 13.44 42.5798 12.978C42.7758 12.516 42.9648 12.061 43.1468 11.613C43.3428 11.151 43.4408 10.738 43.4408 10.374C43.4408 9.926 43.3078 9.597 43.0418 9.387C42.7898 9.163 42.5308 8.96 42.2648 8.778C41.9428 9.604 41.6068 10.388 41.2568 11.13C40.9068 11.872 40.6198 12.432 40.3958 12.81L40.2068 12.453C40.4028 12.089 40.6548 11.557 40.9628 10.857C41.2848 10.157 41.5998 9.359 41.9078 8.463C41.7678 8.323 41.6978 8.155 41.6978 7.959C41.6978 7.539 41.8168 7.196 42.0548 6.93C42.2928 6.664 42.4678 6.531 42.5798 6.531C42.7338 6.531 42.8178 6.601 42.8318 6.741C42.8598 6.867 42.8738 6.965 42.8738 7.035C42.8738 7.105 42.8318 7.245 42.7478 7.455C42.6778 7.651 42.6428 7.77 42.6428 7.812C42.6428 8.008 42.7478 8.19 42.9578 8.358C43.1818 8.512 43.4338 8.694 43.7138 8.904C43.9938 9.1 44.2388 9.345 44.4488 9.639C44.6728 9.919 44.7848 10.283 44.7848 10.731C44.7848 11.151 44.6938 11.578 44.5118 12.012C44.3438 12.446 44.1688 12.859 43.9868 13.251C43.8188 13.643 43.7348 13.986 43.7348 14.28C43.7348 14.532 43.7978 14.7 43.9238 14.784C44.0498 14.868 44.1968 14.91 44.3648 14.91C44.7008 14.91 45.0438 14.805 45.3938 14.595C45.7578 14.385 46.1078 14.119 46.4438 13.797C46.7798 13.475 47.0808 13.139 47.3468 12.789C47.6128 12.425 47.8088 12.089 47.9348 11.781L48.2078 11.991C47.9418 12.579 47.5778 13.16 47.1158 13.734C46.6538 14.294 46.1358 14.756 45.5618 15.12C45.0018 15.484 44.4208 15.666 43.8188 15.666Z" fill="black"/>
<path d="M14.7325 41.926C14.4105 41.926 14.0675 41.863 13.7035 41.737C13.3535 41.611 13.0595 41.352 12.8215 40.96C12.5835 40.568 12.4645 39.98 12.4645 39.196C12.4645 38.65 12.5275 38.111 12.6535 37.579C12.7795 37.033 12.9615 36.578 13.1995 36.214C13.4515 35.85 13.7385 35.668 14.0605 35.668C14.2285 35.668 14.4245 35.724 14.6485 35.836C14.1445 37.11 13.8925 38.23 13.8925 39.196C13.8925 39.826 14.0045 40.316 14.2285 40.666C14.4525 41.016 14.7815 41.191 15.2155 41.191C15.5795 41.191 15.9015 41.037 16.1815 40.729C16.4755 40.421 16.7765 39.84 17.0845 38.986C17.3085 38.37 17.5395 37.628 17.7775 36.76C18.0295 35.878 18.2745 34.94 18.5125 33.946C18.7645 32.938 19.0025 31.944 19.2265 30.964C19.4505 29.97 19.6535 29.053 19.8355 28.213C20.0175 27.373 20.1575 26.673 20.2555 26.113C19.5695 26.113 18.9885 26.127 18.5125 26.155C18.0505 26.183 17.6305 26.225 17.2525 26.281C16.8745 26.337 16.4615 26.421 16.0135 26.533C16.0835 26.057 16.3845 25.693 16.9165 25.441C17.4625 25.175 18.3025 25.042 19.4365 25.042C19.9965 25.042 20.5635 25.07 21.1375 25.126C21.7115 25.182 22.2365 25.245 22.7125 25.315C23.2025 25.371 23.5735 25.427 23.8255 25.483C23.6715 25.749 23.4195 25.917 23.0695 25.987C22.7195 26.057 22.4325 26.092 22.2085 26.092C21.9285 26.092 21.6625 26.099 21.4105 26.113C21.1725 26.113 20.9415 26.113 20.7175 26.113C20.8715 26.225 20.9835 26.379 21.0535 26.575C21.1235 26.771 21.1585 26.946 21.1585 27.1C21.1585 27.282 21.1095 27.688 21.0115 28.318C20.9135 28.934 20.7735 29.683 20.5915 30.565C20.4095 31.447 20.1925 32.385 19.9405 33.379C19.6885 34.373 19.4155 35.346 19.1215 36.298C18.8275 37.25 18.5125 38.097 18.1765 38.839C17.8125 39.679 17.4415 40.316 17.0635 40.75C16.6995 41.198 16.3215 41.506 15.9295 41.674C15.5515 41.842 15.1525 41.926 14.7325 41.926Z" fill="black"/>
<path d="M22.5421 40.792C21.9401 40.792 21.5131 40.603 21.2611 40.225C21.0091 39.861 20.8831 39.413 20.8831 38.881C20.8831 38.447 20.9531 37.999 21.0931 37.537C21.2331 37.075 21.4151 36.641 21.6391 36.235C21.8771 35.829 22.1361 35.5 22.4161 35.248C22.7101 34.996 23.0041 34.87 23.2981 34.87C23.4241 34.87 23.5711 34.905 23.7391 34.975C23.6131 35.087 23.4591 35.297 23.2771 35.605C23.1091 35.899 22.9481 36.242 22.7941 36.634C22.6401 37.012 22.5071 37.39 22.3951 37.768C22.2971 38.146 22.2481 38.468 22.2481 38.734C22.2481 39.154 22.3181 39.462 22.4581 39.658C22.5981 39.84 22.7801 39.931 23.0041 39.931C23.2981 39.931 23.6481 39.777 24.0541 39.469C24.4601 39.147 24.8591 38.741 25.2511 38.251C24.8591 37.929 24.5511 37.509 24.3271 36.991C24.1171 36.459 24.0121 35.92 24.0121 35.374C24.0121 34.912 24.0891 34.478 24.2431 34.072C24.4111 33.666 24.6491 33.344 24.9571 33.106C25.2651 32.854 25.6361 32.728 26.0701 32.728C26.6441 32.728 27.0291 32.882 27.2251 33.19C27.4211 33.498 27.5191 33.883 27.5191 34.345C27.5191 34.891 27.3861 35.5 27.1201 36.172C26.8541 36.83 26.5181 37.467 26.1121 38.083C26.3641 38.223 26.6301 38.293 26.9101 38.293C27.2321 38.293 27.6241 38.188 28.0861 37.978C28.5481 37.754 28.9051 37.355 29.1571 36.781L29.4091 36.991C29.1291 37.649 28.7301 38.118 28.2121 38.398C27.7081 38.664 27.2251 38.797 26.7631 38.797C26.3851 38.797 26.0491 38.727 25.7551 38.587C25.2791 39.217 24.7541 39.742 24.1801 40.162C23.6201 40.582 23.0741 40.792 22.5421 40.792ZM25.6291 37.705C25.9791 37.187 26.2661 36.648 26.4901 36.088C26.7281 35.514 26.8471 34.975 26.8471 34.471C26.8471 34.065 26.7841 33.771 26.6581 33.589C26.5461 33.393 26.3991 33.295 26.2171 33.295C25.9371 33.295 25.6501 33.498 25.3561 33.904C25.0621 34.31 24.9151 34.821 24.9151 35.437C24.9151 35.843 24.9711 36.256 25.0831 36.676C25.2091 37.082 25.3911 37.425 25.6291 37.705Z" fill="black"/>
<path d="M29.666 46C29.316 46 29.008 45.902 28.742 45.706C28.476 45.524 28.343 45.251 28.343 44.887C28.343 44.285 28.532 43.767 28.91 43.333C29.302 42.899 29.806 42.5 30.422 42.136C31.052 41.786 31.717 41.436 32.417 41.086C32.613 40.568 32.809 39.994 33.005 39.364C33.215 38.72 33.411 38.013 33.593 37.243C33.145 37.971 32.662 38.601 32.144 39.133C31.64 39.651 31.101 39.91 30.527 39.91C30.121 39.91 29.736 39.777 29.372 39.511C29.022 39.231 28.847 38.797 28.847 38.209C28.847 37.817 28.91 37.362 29.036 36.844C29.176 36.326 29.344 35.822 29.54 35.332C29.736 34.842 29.939 34.436 30.149 34.114C30.359 33.792 30.541 33.631 30.695 33.631C30.751 33.631 30.849 33.652 30.989 33.694C31.143 33.736 31.283 33.799 31.409 33.883C31.549 33.953 31.619 34.03 31.619 34.114C31.493 34.296 31.353 34.555 31.199 34.891C31.045 35.227 30.891 35.605 30.737 36.025C30.597 36.431 30.478 36.83 30.38 37.222C30.282 37.614 30.233 37.95 30.233 38.23C30.233 38.482 30.289 38.685 30.401 38.839C30.513 38.993 30.709 39.07 30.989 39.07C31.255 39.07 31.549 38.944 31.871 38.692C32.207 38.426 32.536 38.09 32.858 37.684C33.194 37.278 33.502 36.844 33.782 36.382C33.824 36.228 33.859 36.074 33.887 35.92C33.929 35.752 33.964 35.584 33.992 35.416C34.034 35.22 34.132 34.996 34.286 34.744C34.454 34.478 34.713 34.345 35.063 34.345C35.189 34.345 35.336 34.366 35.504 34.408C35.504 34.632 35.434 35.052 35.294 35.668C35.168 36.27 34.979 36.977 34.727 37.789C34.489 38.601 34.202 39.434 33.866 40.288C34.524 40.036 35.168 39.623 35.798 39.049C36.428 38.461 36.939 37.684 37.331 36.718L37.604 36.928C37.394 37.6 37.072 38.188 36.638 38.692C36.218 39.182 35.742 39.609 35.21 39.973C34.678 40.323 34.153 40.617 33.635 40.855C33.271 41.751 32.872 42.591 32.438 43.375C32.018 44.159 31.57 44.789 31.094 45.265C30.632 45.755 30.156 46 29.666 46ZM29.561 45.328C29.771 45.328 30.121 45.048 30.611 44.488C31.115 43.942 31.647 42.976 32.207 41.59C31.633 41.898 31.101 42.199 30.611 42.493C30.121 42.801 29.729 43.13 29.435 43.48C29.141 43.83 28.994 44.236 28.994 44.698C28.994 44.81 29.036 44.943 29.12 45.097C29.204 45.251 29.351 45.328 29.561 45.328Z" fill="black"/>
</svg>
