<svg width="74" height="101" viewBox="0 0 74 101" fill="none" xmlns="http://www.w3.org/2000/svg">
<path d="M54.392 47.432C60.152 48.872 64.856 51.752 68.504 56.072C72.152 60.392 73.976 66.008 73.976 72.92C73.976 82.328 71.048 89.384 65.192 94.088C59.432 98.696 52.232 101 43.592 101H4.856C3.608 101 2.552 100.616 1.688 99.848C0.919996 98.984 0.535995 97.928 0.535995 96.68V4.52C0.535995 3.272 0.919996 2.264 1.688 1.496C2.552 0.631997 3.608 0.199997 4.856 0.199997H43.016C51.08 0.199997 57.368 2.408 61.88 6.824C66.488 11.24 68.792 17.288 68.792 24.968C68.792 30.056 67.544 34.616 65.048 38.648C62.552 42.68 59 45.608 54.392 47.432ZM59.576 25.688C59.576 20.408 57.992 16.28 54.824 13.304C51.752 10.232 47.432 8.696 41.864 8.696H9.752V44.696H41.864C47.048 44.6 51.272 42.92 54.536 39.656C57.896 36.392 59.576 31.736 59.576 25.688ZM43.16 92.504C49.592 92.504 54.776 90.872 58.712 87.608C62.744 84.344 64.76 79.448 64.76 72.92C64.76 66.2 62.696 61.256 58.568 58.088C54.536 54.92 49.304 53.336 42.872 53.336H9.752V92.504H43.16Z" fill="black"/>
</svg>
