<svg width="84" height="101" viewBox="0 0 84 101" fill="none" xmlns="http://www.w3.org/2000/svg">
<path d="M41.576 0.199997C50.792 0.199997 58.52 2.504 64.76 7.112C71.096 11.624 75.8 17.72 78.872 25.4C82.04 32.984 83.624 41.384 83.624 50.6C83.624 60.104 82.04 68.648 78.872 76.232C75.8 83.816 71.096 89.864 64.76 94.376C58.52 98.792 50.792 101 41.576 101H4.856C3.608 101 2.552 100.616 1.688 99.848C0.920001 98.984 0.536001 97.928 0.536001 96.68V4.52C0.536001 3.272 0.920001 2.264 1.688 1.496C2.552 0.631997 3.608 0.199997 4.856 0.199997H41.576ZM40.136 92.504C51.656 92.504 60.248 88.664 65.912 80.984C71.576 73.208 74.408 63.08 74.408 50.6C74.408 42.824 73.208 35.816 70.808 29.576C68.408 23.24 64.616 18.2 59.432 14.456C54.344 10.616 47.912 8.696 40.136 8.696H9.608V92.504H40.136Z" fill="black"/>
</svg>
