<svg width="63" height="101" viewBox="0 0 63 101" fill="none" xmlns="http://www.w3.org/2000/svg">
<path d="M57.704 92.504C58.952 92.504 59.96 92.936 60.728 93.8C61.592 94.664 62.024 95.672 62.024 96.824C62.024 98.072 61.592 99.08 60.728 99.848C59.96 100.616 58.952 101 57.704 101H4.856C3.608 101 2.552 100.616 1.688 99.848C0.920003 98.984 0.536003 97.928 0.536003 96.68V4.52C0.536003 3.272 0.920003 2.264 1.688 1.496C2.552 0.631997 3.608 0.199997 4.856 0.199997H57.704C58.952 0.199997 59.96 0.631997 60.728 1.496C61.592 2.264 62.024 3.272 62.024 4.52C62.024 5.768 61.592 6.776 60.728 7.544C59.96 8.312 58.952 8.696 57.704 8.696H9.608V44.84H51.224C52.472 44.84 53.48 45.272 54.248 46.136C55.112 46.904 55.544 47.912 55.544 49.16C55.544 50.408 55.112 51.416 54.248 52.184C53.48 52.952 52.472 53.336 51.224 53.336H9.608V92.504H57.704Z" fill="black"/>
</svg>
