<svg width="86" height="105" viewBox="0 0 86 105" fill="none" xmlns="http://www.w3.org/2000/svg">
<path d="M81.12 52.168C82.368 52.168 83.376 52.6 84.144 53.464C85.008 54.232 85.44 55.24 85.44 56.488V91.192C85.44 92.824 84.72 94.12 83.28 95.08C78.96 98.056 74.16 100.36 68.88 101.992C63.6 103.624 58.224 104.44 52.752 104.44C42.96 104.44 34.128 102.184 26.256 97.672C18.384 93.16 12.192 86.968 7.67999 79.096C3.16799 71.224 0.911987 62.392 0.911987 52.6C0.911987 42.808 3.16799 33.976 7.67999 26.104C12.192 18.232 18.384 12.04 26.256 7.52799C34.128 3.01599 42.96 0.759995 52.752 0.759995C57.84 0.759995 62.736 1.384 67.44 2.632C72.24 3.88 76.512 5.656 80.256 7.96C81.6 8.824 82.272 10.024 82.272 11.56C82.272 12.808 81.84 13.864 80.976 14.728C80.208 15.592 79.296 16.024 78.24 16.024C77.28 16.024 76.416 15.784 75.648 15.304C68.448 11.368 60.816 9.39999 52.752 9.39999C44.592 9.39999 37.248 11.272 30.72 15.016C24.288 18.76 19.248 23.944 15.6 30.568C11.952 37.096 10.128 44.44 10.128 52.6C10.128 60.76 11.952 68.152 15.6 74.776C19.248 81.304 24.288 86.44 30.72 90.184C37.248 93.928 44.592 95.8 52.752 95.8C56.88 95.8 61.008 95.224 65.136 94.072C69.36 92.92 73.104 91.336 76.368 89.32V60.808H53.616C52.368 60.808 51.312 60.424 50.448 59.656C49.584 58.792 49.152 57.736 49.152 56.488C49.152 55.24 49.584 54.232 50.448 53.464C51.312 52.6 52.368 52.168 53.616 52.168H81.12Z" fill="black"/>
</svg>
