<svg width="78" height="101" viewBox="0 0 78 101" fill="none" xmlns="http://www.w3.org/2000/svg">
<path d="M72.68 0.199993C74.024 0.199993 75.08 0.631993 75.848 1.49599C76.712 2.264 77.144 3.32 77.144 4.664V96.536C77.048 97.88 76.568 98.984 75.704 99.848C74.84 100.616 73.784 101 72.536 101C71.288 101 70.232 100.568 69.368 99.704C68.504 98.84 68.072 97.784 68.072 96.536V53.624H9.608V96.536C9.512 97.784 9.032 98.84 8.16799 99.704C7.304 100.568 6.248 101 4.99999 101C3.656 101 2.552 100.616 1.688 99.848C0.919996 98.984 0.535995 97.88 0.535995 96.536V4.664C0.535995 3.32 0.967996 2.264 1.832 1.49599C2.696 0.631993 3.8 0.199993 5.144 0.199993C6.392 0.199993 7.448 0.631993 8.312 1.49599C9.176 2.35999 9.608 3.41599 9.608 4.664V45.272H68.072V4.664C68.072 3.41599 68.504 2.35999 69.368 1.49599C70.328 0.631993 71.432 0.199993 72.68 0.199993Z" fill="black"/>
</svg>
