<svg width="78" height="102" viewBox="0 0 78 102" fill="none" xmlns="http://www.w3.org/2000/svg">
<path d="M76.424 93.944C77.096 94.904 77.432 95.912 77.432 96.968C77.432 98.408 76.904 99.56 75.848 100.424C74.888 101.192 73.784 101.576 72.536 101.576C71.288 101.576 70.232 101.048 69.368 99.992L29.192 49.448L9.608 67.88V96.536C9.512 97.88 9.032 98.984 8.168 99.848C7.304 100.616 6.248 101 5 101C3.656 101 2.552 100.616 1.688 99.848C0.920003 98.984 0.536003 97.88 0.536003 96.536V4.664C0.536003 3.32 0.968003 2.264 1.832 1.49599C2.696 0.631993 3.8 0.199993 5.144 0.199993C6.488 0.199993 7.544 0.631993 8.312 1.49599C9.176 2.264 9.608 3.32 9.608 4.664V56.936L67.784 1.928C68.648 0.967998 69.704 0.487998 70.952 0.487998C72.104 0.487998 73.064 0.919998 73.832 1.784C74.696 2.648 75.128 3.608 75.128 4.664C75.128 5.816 74.696 6.824 73.832 7.688L36.104 42.968L76.424 93.944Z" fill="black"/>
</svg>
