<svg width="61" height="101" viewBox="0 0 61 101" fill="none" xmlns="http://www.w3.org/2000/svg">
<path d="M56.264 92.504C57.512 92.504 58.52 92.888 59.288 93.656C60.152 94.424 60.584 95.432 60.584 96.68C60.584 97.928 60.152 98.984 59.288 99.848C58.52 100.616 57.512 101 56.264 101H4.856C3.608 101 2.552 100.616 1.688 99.848C0.919996 98.984 0.535995 97.928 0.535995 96.68V4.52C0.535995 3.272 0.967996 2.264 1.832 1.49599C2.696 0.631993 3.8 0.199993 5.144 0.199993C6.392 0.199993 7.448 0.631993 8.312 1.49599C9.176 2.264 9.608 3.272 9.608 4.52V92.504H56.264Z" fill="black"/>
</svg>
