<svg width="93" height="101" viewBox="0 0 93 101" fill="none" xmlns="http://www.w3.org/2000/svg">
<path d="M88.376 0.199996C89.528 0.199996 90.488 0.631997 91.256 1.496C92.12 2.264 92.552 3.272 92.552 4.52V96.68C92.552 97.928 92.12 98.984 91.256 99.848C90.392 100.616 89.336 101 88.088 101C86.744 101 85.64 100.616 84.776 99.848C83.912 98.984 83.48 97.928 83.48 96.68V17.48L49.64 68.744C48.68 69.992 47.576 70.568 46.328 70.472H46.04C44.888 70.472 43.832 69.896 42.872 68.744L9.03201 17.192V96.68C9.03201 97.928 8.60001 98.984 7.73601 99.848C6.96801 100.616 5.96001 101 4.71201 101C3.46401 101 2.45601 100.616 1.68801 99.848C0.920011 98.984 0.536011 97.928 0.536011 96.68V4.52C0.536011 3.368 0.920011 2.36 1.68801 1.496C2.55201 0.631997 3.60801 0.199996 4.85601 0.199996C5.52801 0.199996 6.24801 0.391997 7.01601 0.775998C7.78401 1.064 8.36001 1.496 8.74401 2.072L46.472 58.664L84.488 2.072C85.544 0.631999 86.84 0.00799884 88.376 0.199996Z" fill="black"/>
</svg>
