<svg width="79" height="101" viewBox="0 0 79 101" fill="none" xmlns="http://www.w3.org/2000/svg">
<path d="M74.264 0.199997C75.512 0.199997 76.472 0.583998 77.144 1.352C77.912 2.12 78.296 3.08 78.296 4.232V96.392C78.296 97.832 77.864 98.984 77 99.848C76.136 100.616 75.08 101 73.832 101C73.16 101 72.488 100.856 71.816 100.568C71.24 100.28 70.76 99.944 70.376 99.56L8.6 16.328V97.112C8.6 98.168 8.168 99.08 7.304 99.848C6.536 100.616 5.624 101 4.568 101C3.416 101 2.456 100.616 1.688 99.848C0.919996 99.08 0.535995 98.168 0.535995 97.112V4.52C0.535995 3.176 0.919996 2.12 1.688 1.352C2.552 0.583998 3.56 0.199997 4.712 0.199997C6.248 0.199997 7.4 0.727999 8.16799 1.784L70.232 85.448V4.232C70.232 3.08 70.616 2.12 71.384 1.352C72.152 0.583998 73.112 0.199997 74.264 0.199997Z" fill="black"/>
</svg>
