<svg width="77" height="103" viewBox="0 0 77 103" fill="none" xmlns="http://www.w3.org/2000/svg">
<path d="M71.816 0.199997C73.064 0.199997 74.072 0.631997 74.84 1.496C75.704 2.264 76.136 3.272 76.136 4.52V64.136C76.136 71.144 74.456 77.576 71.096 83.432C67.736 89.288 63.176 93.896 57.416 97.256C51.656 100.616 45.32 102.296 38.408 102.296C31.4 102.296 25.016 100.616 19.256 97.256C13.496 93.896 8.936 89.288 5.576 83.432C2.216 77.576 0.535995 71.144 0.535995 64.136V4.52C0.535995 3.272 0.919996 2.264 1.688 1.496C2.552 0.631997 3.704 0.199997 5.144 0.199997C6.296 0.199997 7.304 0.631997 8.16799 1.496C9.032 2.264 9.46399 3.272 9.46399 4.52V64.136C9.46399 69.512 10.76 74.456 13.352 78.968C15.944 83.48 19.448 87.08 23.864 89.768C28.376 92.36 33.224 93.656 38.408 93.656C43.688 93.656 48.536 92.36 52.952 89.768C57.464 87.08 61.016 83.48 63.608 78.968C66.296 74.456 67.64 69.512 67.64 64.136V4.52C67.64 3.272 68.024 2.264 68.792 1.496C69.56 0.631997 70.568 0.199997 71.816 0.199997Z" fill="black"/>
</svg>
