<svg width="131" height="102" viewBox="0 0 131 102" fill="none" xmlns="http://www.w3.org/2000/svg">
<path d="M126.176 0.912003C127.52 0.912003 128.624 1.296 129.488 2.064C130.352 2.832 130.784 3.888 130.784 5.232L130.496 7.104L98.672 99.264C98.384 100.128 97.856 100.8 97.088 101.28C96.416 101.76 95.648 102 94.784 102C92.576 102 91.136 101.088 90.464 99.264L65.552 37.776L40.64 99.264C39.776 101.088 38.336 102 36.32 102C35.456 102 34.64 101.76 33.872 101.28C33.2 100.8 32.768 100.128 32.576 99.264L0.751999 7.104C0.464 6.528 0.32 5.952 0.32 5.37601C0.32 4.032 0.8 2.976 1.76 2.208C2.816 1.344 3.92 0.912003 5.072 0.912003C6.032 0.912003 6.896 1.152 7.664 1.632C8.432 2.112 8.96 2.784 9.248 3.648L37.472 86.016L61.664 25.68C62.528 23.76 63.872 22.848 65.696 22.944C66.656 22.848 67.472 23.088 68.144 23.664C68.912 24.144 69.488 24.816 69.872 25.68L93.92 86.016L121.856 3.648C122.624 1.824 124.064 0.912003 126.176 0.912003Z" fill="black"/>
</svg>
