<svg width="76" height="102" viewBox="0 0 76 102" fill="none" xmlns="http://www.w3.org/2000/svg">
<path d="M75.904 4.944C75.904 5.61599 75.616 6.52799 75.04 7.68L42.928 51.888V97.68C42.928 98.928 42.496 99.984 41.632 100.848C40.768 101.616 39.712 102 38.464 102C37.216 102 36.16 101.616 35.296 100.848C34.528 99.984 34.144 98.928 34.144 97.68V52.032L1.88799 7.96799C1.11999 7.10399 0.735992 6.09599 0.735992 4.944C0.735992 3.792 1.21599 2.78399 2.17599 1.91999C3.13599 1.05599 4.19199 0.623993 5.34399 0.623993C6.87999 0.623993 8.07999 1.29599 8.94399 2.63999L38.752 43.248L67.84 2.63999C68.896 1.29599 70.144 0.623993 71.584 0.623993C72.736 0.623993 73.744 1.104 74.608 2.064C75.472 2.92799 75.904 3.88799 75.904 4.944Z" fill="black"/>
</svg>
