<svg width="48" height="47" viewBox="0 0 48 47" fill="none" xmlns="http://www.w3.org/2000/svg">
<path d="M10.3707 17.827C9.86669 17.827 9.30669 17.722 8.69069 17.512C8.08869 17.302 7.46569 17.043 6.82169 16.735C6.17769 16.441 5.54069 16.154 4.91069 15.874C4.56069 16.266 4.19669 16.567 3.81869 16.777C3.44069 17.001 3.02769 17.113 2.57969 17.113C2.13169 17.113 1.75369 17.008 1.44569 16.798C1.12369 16.588 0.885691 16.336 0.731691 16.042C0.563691 15.762 0.479691 15.51 0.479691 15.286C0.479691 15.034 0.598691 14.817 0.836691 14.635C1.06069 14.453 1.45269 14.362 2.01269 14.362C2.37669 14.362 2.77569 14.404 3.20969 14.488C3.65769 14.572 4.11969 14.677 4.59569 14.803C4.93169 14.215 5.23969 13.529 5.51969 12.745C5.81369 11.961 6.10069 11.128 6.38069 10.246C6.66069 9.364 6.94069 8.482 7.22069 7.6C6.57669 7.39 6.06569 7.082 5.68769 6.676C5.32369 6.27 5.14169 5.829 5.14169 5.353C5.14169 4.989 5.26069 4.625 5.49869 4.261C5.73669 3.883 6.05169 3.694 6.44369 3.694C6.34569 3.834 6.27569 4.037 6.23369 4.303C6.19169 4.569 6.17069 4.8 6.17069 4.996C6.17069 5.528 6.28269 5.976 6.50669 6.34C6.73069 6.69 7.01769 6.963 7.36769 7.159C7.73169 6.039 8.12369 5.003 8.54369 4.051C8.97769 3.099 9.46769 2.336 10.0137 1.762C10.5597 1.174 11.1827 0.879999 11.8827 0.879999C12.1627 0.879999 12.4567 0.942999 12.7647 1.069C13.0867 1.195 13.3597 1.412 13.5837 1.72C13.8077 2.028 13.9197 2.462 13.9197 3.022C13.9197 3.498 13.8217 4.016 13.6257 4.576C13.4297 5.122 13.1287 5.647 12.7227 6.151C12.3167 6.641 11.7987 7.047 11.1687 7.369C10.5387 7.677 9.79669 7.838 8.94269 7.852H8.54369C8.26369 8.706 7.96269 9.574 7.64069 10.456C7.33269 11.338 7.00369 12.178 6.65369 12.976C6.30369 13.76 5.92569 14.46 5.51969 15.076C6.48569 15.37 7.45869 15.664 8.43869 15.958C9.43269 16.238 10.3147 16.378 11.0847 16.378C11.6447 16.378 12.1417 16.266 12.5757 16.042C12.3517 16.686 12.0507 17.141 11.6727 17.407C11.3087 17.687 10.8747 17.827 10.3707 17.827ZM8.66969 7.453C9.29969 7.453 9.86669 7.278 10.3707 6.928C10.8887 6.564 11.3227 6.116 11.6727 5.584C12.0367 5.038 12.3097 4.485 12.4917 3.925C12.6877 3.365 12.7857 2.875 12.7857 2.455C12.7857 2.049 12.7087 1.776 12.5547 1.636C12.4007 1.482 12.2257 1.405 12.0297 1.405C11.5957 1.405 11.1897 1.685 10.8117 2.245C10.4337 2.805 10.0697 3.547 9.71969 4.471C9.38369 5.381 9.03369 6.375 8.66969 7.453ZM2.49569 16.504C2.80369 16.504 3.09069 16.42 3.35669 16.252C3.63669 16.084 3.88869 15.846 4.11269 15.538C3.67869 15.356 3.25169 15.209 2.83169 15.097C2.42569 14.971 2.05469 14.908 1.71869 14.908C1.45269 14.908 1.27069 14.943 1.17269 15.013C1.07469 15.083 1.02569 15.181 1.02569 15.307C1.02569 15.545 1.16569 15.804 1.44569 16.084C1.71169 16.364 2.06169 16.504 2.49569 16.504ZM15.9706 16.924C15.1166 16.924 14.4726 16.686 14.0386 16.21C13.6186 15.748 13.4086 15.174 13.4086 14.488C13.4086 13.858 13.5626 13.193 13.8706 12.493C14.1926 11.793 14.6126 11.135 15.1306 10.519C15.6626 9.903 16.2436 9.406 16.8736 9.028C17.5036 8.636 18.1266 8.44 18.7426 8.44C19.0646 8.44 19.3586 8.524 19.6246 8.692C19.9046 8.86 20.0446 9.203 20.0446 9.721C20.0446 10.253 19.8836 10.757 19.5616 11.233C19.2536 11.695 18.8406 12.108 18.3226 12.472C17.8186 12.836 17.2586 13.137 16.6426 13.375C16.0406 13.599 15.4386 13.739 14.8366 13.795C14.8086 13.935 14.7876 14.068 14.7736 14.194C14.7596 14.32 14.7526 14.439 14.7526 14.551C14.7526 14.985 14.8646 15.391 15.0886 15.769C15.3266 16.133 15.7676 16.315 16.4116 16.315C17.0136 16.315 17.6086 16.147 18.1966 15.811C18.7846 15.461 19.3306 15.006 19.8346 14.446C20.3386 13.886 20.7656 13.27 21.1156 12.598L21.3676 12.787C20.9896 13.627 20.5066 14.355 19.9186 14.971C19.3446 15.587 18.7146 16.063 18.0286 16.399C17.3566 16.749 16.6706 16.924 15.9706 16.924ZM14.9416 13.396C15.3196 13.27 15.7466 13.088 16.2226 12.85C16.6986 12.598 17.1536 12.304 17.5876 11.968C18.0356 11.632 18.3996 11.261 18.6796 10.855C18.9736 10.449 19.1206 10.022 19.1206 9.574C19.1206 9.42 19.0926 9.301 19.0366 9.217C18.9806 9.133 18.8616 9.091 18.6796 9.091C18.3436 9.091 17.9866 9.224 17.6086 9.49C17.2306 9.742 16.8666 10.078 16.5166 10.498C16.1666 10.918 15.8516 11.38 15.5716 11.884C15.2916 12.388 15.0816 12.892 14.9416 13.396ZM22.4808 16.966C21.2348 16.966 20.6118 16.273 20.6118 14.887C20.6118 14.271 20.7238 13.515 20.9478 12.619C21.1858 11.709 21.4798 10.778 21.8298 9.826C21.6898 9.798 21.5568 9.777 21.4308 9.763C21.3048 9.735 21.1858 9.7 21.0738 9.658V9.28C21.1858 9.294 21.3188 9.308 21.4728 9.322C21.6268 9.336 21.8018 9.35 21.9978 9.364C22.2918 8.608 22.6068 7.88 22.9428 7.18C23.2788 6.466 23.6078 5.836 23.9298 5.29C24.2658 4.73 24.5808 4.289 24.8748 3.967C25.1828 3.631 25.4418 3.463 25.6518 3.463C25.7638 3.463 25.8618 3.505 25.9458 3.589C26.0438 3.659 26.0928 3.771 26.0928 3.925C26.0928 4.163 25.9458 4.555 25.6518 5.101C25.3578 5.633 24.9938 6.27 24.5598 7.012C24.1258 7.754 23.7058 8.559 23.2998 9.427H24.0768C24.5388 9.427 25.0218 9.42 25.5258 9.406C26.0438 9.392 26.5618 9.357 27.0798 9.301V9.679C25.5538 9.847 24.3218 9.931 23.3838 9.931H23.0688C22.7468 10.673 22.4738 11.436 22.2498 12.22C22.0258 13.004 21.9138 13.767 21.9138 14.509C21.9138 15.111 22.0048 15.545 22.1868 15.811C22.3688 16.063 22.6698 16.189 23.0898 16.189C23.8178 16.189 24.5318 15.867 25.2318 15.223C25.9318 14.579 26.5478 13.704 27.0798 12.598L27.3528 12.808C27.0168 13.592 26.5898 14.299 26.0718 14.929C25.5678 15.559 25.0078 16.056 24.3918 16.42C23.7758 16.784 23.1388 16.966 22.4808 16.966ZM28.4691 16.966C27.2231 16.966 26.6001 16.273 26.6001 14.887C26.6001 14.271 26.7121 13.515 26.9361 12.619C27.1741 11.709 27.4681 10.778 27.8181 9.826C27.6781 9.798 27.5451 9.777 27.4191 9.763C27.2931 9.735 27.1741 9.7 27.0621 9.658V9.28C27.1741 9.294 27.3071 9.308 27.4611 9.322C27.6151 9.336 27.7901 9.35 27.9861 9.364C28.2801 8.608 28.5951 7.88 28.9311 7.18C29.2671 6.466 29.5961 5.836 29.9181 5.29C30.2541 4.73 30.5691 4.289 30.8631 3.967C31.1711 3.631 31.4301 3.463 31.6401 3.463C31.7521 3.463 31.8501 3.505 31.9341 3.589C32.0321 3.659 32.0811 3.771 32.0811 3.925C32.0811 4.163 31.9341 4.555 31.6401 5.101C31.3461 5.633 30.9821 6.27 30.5481 7.012C30.1141 7.754 29.6941 8.559 29.2881 9.427H30.0651C30.5271 9.427 31.0101 9.42 31.5141 9.406C32.0321 9.392 32.5501 9.357 33.0681 9.301V9.679C31.5421 9.847 30.3101 9.931 29.3721 9.931H29.0571C28.7351 10.673 28.4621 11.436 28.2381 12.22C28.0141 13.004 27.9021 13.767 27.9021 14.509C27.9021 15.111 27.9931 15.545 28.1751 15.811C28.3571 16.063 28.6581 16.189 29.0781 16.189C29.8061 16.189 30.5201 15.867 31.2201 15.223C31.9201 14.579 32.5361 13.704 33.0681 12.598L33.3411 12.808C33.0051 13.592 32.5781 14.299 32.0601 14.929C31.5561 15.559 30.9961 16.056 30.3801 16.42C29.7641 16.784 29.1271 16.966 28.4691 16.966ZM34.9404 16.924C34.0864 16.924 33.4424 16.686 33.0084 16.21C32.5884 15.748 32.3784 15.174 32.3784 14.488C32.3784 13.858 32.5324 13.193 32.8404 12.493C33.1624 11.793 33.5824 11.135 34.1004 10.519C34.6324 9.903 35.2134 9.406 35.8434 9.028C36.4734 8.636 37.0964 8.44 37.7124 8.44C38.0344 8.44 38.3284 8.524 38.5944 8.692C38.8744 8.86 39.0144 9.203 39.0144 9.721C39.0144 10.253 38.8534 10.757 38.5314 11.233C38.2234 11.695 37.8104 12.108 37.2924 12.472C36.7884 12.836 36.2284 13.137 35.6124 13.375C35.0104 13.599 34.4084 13.739 33.8064 13.795C33.7784 13.935 33.7574 14.068 33.7434 14.194C33.7294 14.32 33.7224 14.439 33.7224 14.551C33.7224 14.985 33.8344 15.391 34.0584 15.769C34.2964 16.133 34.7374 16.315 35.3814 16.315C35.9834 16.315 36.5784 16.147 37.1664 15.811C37.7544 15.461 38.3004 15.006 38.8044 14.446C39.3084 13.886 39.7354 13.27 40.0854 12.598L40.3374 12.787C39.9594 13.627 39.4764 14.355 38.8884 14.971C38.3144 15.587 37.6844 16.063 36.9984 16.399C36.3264 16.749 35.6404 16.924 34.9404 16.924ZM33.9114 13.396C34.2894 13.27 34.7164 13.088 35.1924 12.85C35.6684 12.598 36.1234 12.304 36.5574 11.968C37.0054 11.632 37.3694 11.261 37.6494 10.855C37.9434 10.449 38.0904 10.022 38.0904 9.574C38.0904 9.42 38.0624 9.301 38.0064 9.217C37.9504 9.133 37.8314 9.091 37.6494 9.091C37.3134 9.091 36.9564 9.224 36.5784 9.49C36.2004 9.742 35.8364 10.078 35.4864 10.498C35.1364 10.918 34.8214 11.38 34.5414 11.884C34.2614 12.388 34.0514 12.892 33.9114 13.396ZM43.2985 16.546C42.8225 16.546 42.4445 16.42 42.1645 16.168C41.8985 15.916 41.7655 15.587 41.7655 15.181C41.7655 14.761 41.8635 14.32 42.0595 13.858C42.2555 13.396 42.4445 12.941 42.6265 12.493C42.8225 12.031 42.9205 11.618 42.9205 11.254C42.9205 10.806 42.7875 10.477 42.5215 10.267C42.2695 10.043 42.0105 9.84 41.7445 9.658C41.4225 10.484 41.0865 11.268 40.7365 12.01C40.3865 12.752 40.0995 13.312 39.8755 13.69L39.6865 13.333C39.8825 12.969 40.1345 12.437 40.4425 11.737C40.7645 11.037 41.0795 10.239 41.3875 9.343C41.2475 9.203 41.1775 9.035 41.1775 8.839C41.1775 8.419 41.2965 8.076 41.5345 7.81C41.7725 7.544 41.9475 7.411 42.0595 7.411C42.2135 7.411 42.2975 7.481 42.3115 7.621C42.3395 7.747 42.3535 7.845 42.3535 7.915C42.3535 7.985 42.3115 8.125 42.2275 8.335C42.1575 8.531 42.1225 8.65 42.1225 8.692C42.1225 8.888 42.2275 9.07 42.4375 9.238C42.6615 9.392 42.9135 9.574 43.1935 9.784C43.4735 9.98 43.7185 10.225 43.9285 10.519C44.1525 10.799 44.2645 11.163 44.2645 11.611C44.2645 12.031 44.1735 12.458 43.9915 12.892C43.8235 13.326 43.6485 13.739 43.4665 14.131C43.2985 14.523 43.2145 14.866 43.2145 15.16C43.2145 15.412 43.2775 15.58 43.4035 15.664C43.5295 15.748 43.6765 15.79 43.8445 15.79C44.1805 15.79 44.5235 15.685 44.8735 15.475C45.2375 15.265 45.5875 14.999 45.9235 14.677C46.2595 14.355 46.5605 14.019 46.8265 13.669C47.0925 13.305 47.2885 12.969 47.4145 12.661L47.6875 12.871C47.4215 13.459 47.0575 14.04 46.5955 14.614C46.1335 15.174 45.6155 15.636 45.0415 16C44.4815 16.364 43.9005 16.546 43.2985 16.546ZM14.2122 42.806C13.8902 42.806 13.5472 42.743 13.1832 42.617C12.8332 42.491 12.5392 42.232 12.3012 41.84C12.0632 41.448 11.9442 40.86 11.9442 40.076C11.9442 39.53 12.0072 38.991 12.1332 38.459C12.2592 37.913 12.4412 37.458 12.6792 37.094C12.9312 36.73 13.2182 36.548 13.5402 36.548C13.7082 36.548 13.9042 36.604 14.1282 36.716C13.6242 37.99 13.3722 39.11 13.3722 40.076C13.3722 40.706 13.4842 41.196 13.7082 41.546C13.9322 41.896 14.2612 42.071 14.6952 42.071C15.0592 42.071 15.3812 41.917 15.6612 41.609C15.9552 41.301 16.2562 40.72 16.5642 39.866C16.7882 39.25 17.0192 38.508 17.2572 37.64C17.5092 36.758 17.7542 35.82 17.9922 34.826C18.2442 33.818 18.4822 32.824 18.7062 31.844C18.9302 30.85 19.1332 29.933 19.3152 29.093C19.4972 28.253 19.6372 27.553 19.7352 26.993C19.0492 26.993 18.4682 27.007 17.9922 27.035C17.5302 27.063 17.1102 27.105 16.7322 27.161C16.3542 27.217 15.9412 27.301 15.4932 27.413C15.5632 26.937 15.8642 26.573 16.3962 26.321C16.9422 26.055 17.7822 25.922 18.9162 25.922C19.4762 25.922 20.0432 25.95 20.6172 26.006C21.1912 26.062 21.7162 26.125 22.1922 26.195C22.6822 26.251 23.0532 26.307 23.3052 26.363C23.1512 26.629 22.8992 26.797 22.5492 26.867C22.1992 26.937 21.9122 26.972 21.6882 26.972C21.4082 26.972 21.1422 26.979 20.8902 26.993C20.6522 26.993 20.4212 26.993 20.1972 26.993C20.3512 27.105 20.4632 27.259 20.5332 27.455C20.6032 27.651 20.6382 27.826 20.6382 27.98C20.6382 28.162 20.5892 28.568 20.4912 29.198C20.3932 29.814 20.2532 30.563 20.0712 31.445C19.8892 32.327 19.6722 33.265 19.4202 34.259C19.1682 35.253 18.8952 36.226 18.6012 37.178C18.3072 38.13 17.9922 38.977 17.6562 39.719C17.2922 40.559 16.9212 41.196 16.5432 41.63C16.1792 42.078 15.8012 42.386 15.4092 42.554C15.0312 42.722 14.6322 42.806 14.2122 42.806ZM22.0218 41.672C21.4198 41.672 20.9928 41.483 20.7408 41.105C20.4888 40.741 20.3628 40.293 20.3628 39.761C20.3628 39.327 20.4328 38.879 20.5728 38.417C20.7128 37.955 20.8948 37.521 21.1188 37.115C21.3568 36.709 21.6158 36.38 21.8958 36.128C22.1898 35.876 22.4838 35.75 22.7778 35.75C22.9038 35.75 23.0508 35.785 23.2188 35.855C23.0928 35.967 22.9388 36.177 22.7568 36.485C22.5888 36.779 22.4278 37.122 22.2738 37.514C22.1198 37.892 21.9868 38.27 21.8748 38.648C21.7768 39.026 21.7278 39.348 21.7278 39.614C21.7278 40.034 21.7978 40.342 21.9378 40.538C22.0778 40.72 22.2598 40.811 22.4838 40.811C22.7778 40.811 23.1278 40.657 23.5338 40.349C23.9398 40.027 24.3388 39.621 24.7308 39.131C24.3388 38.809 24.0308 38.389 23.8068 37.871C23.5968 37.339 23.4918 36.8 23.4918 36.254C23.4918 35.792 23.5688 35.358 23.7228 34.952C23.8908 34.546 24.1288 34.224 24.4368 33.986C24.7448 33.734 25.1158 33.608 25.5498 33.608C26.1238 33.608 26.5088 33.762 26.7048 34.07C26.9008 34.378 26.9988 34.763 26.9988 35.225C26.9988 35.771 26.8658 36.38 26.5998 37.052C26.3338 37.71 25.9978 38.347 25.5918 38.963C25.8438 39.103 26.1098 39.173 26.3898 39.173C26.7118 39.173 27.1038 39.068 27.5658 38.858C28.0278 38.634 28.3848 38.235 28.6368 37.661L28.8888 37.871C28.6088 38.529 28.2098 38.998 27.6918 39.278C27.1878 39.544 26.7048 39.677 26.2428 39.677C25.8648 39.677 25.5288 39.607 25.2348 39.467C24.7588 40.097 24.2338 40.622 23.6598 41.042C23.0998 41.462 22.5538 41.672 22.0218 41.672ZM25.1088 38.585C25.4588 38.067 25.7458 37.528 25.9698 36.968C26.2078 36.394 26.3268 35.855 26.3268 35.351C26.3268 34.945 26.2638 34.651 26.1378 34.469C26.0258 34.273 25.8788 34.175 25.6968 34.175C25.4168 34.175 25.1298 34.378 24.8358 34.784C24.5418 35.19 24.3948 35.701 24.3948 36.317C24.3948 36.723 24.4508 37.136 24.5628 37.556C24.6888 37.962 24.8708 38.305 25.1088 38.585ZM29.1457 46.88C28.7957 46.88 28.4877 46.782 28.2217 46.586C27.9557 46.404 27.8227 46.131 27.8227 45.767C27.8227 45.165 28.0117 44.647 28.3897 44.213C28.7817 43.779 29.2857 43.38 29.9017 43.016C30.5317 42.666 31.1967 42.316 31.8967 41.966C32.0927 41.448 32.2887 40.874 32.4847 40.244C32.6947 39.6 32.8907 38.893 33.0727 38.123C32.6247 38.851 32.1417 39.481 31.6237 40.013C31.1197 40.531 30.5807 40.79 30.0067 40.79C29.6007 40.79 29.2157 40.657 28.8517 40.391C28.5017 40.111 28.3267 39.677 28.3267 39.089C28.3267 38.697 28.3897 38.242 28.5157 37.724C28.6557 37.206 28.8237 36.702 29.0197 36.212C29.2157 35.722 29.4187 35.316 29.6287 34.994C29.8387 34.672 30.0207 34.511 30.1747 34.511C30.2307 34.511 30.3287 34.532 30.4687 34.574C30.6227 34.616 30.7627 34.679 30.8887 34.763C31.0287 34.833 31.0987 34.91 31.0987 34.994C30.9727 35.176 30.8327 35.435 30.6787 35.771C30.5247 36.107 30.3707 36.485 30.2167 36.905C30.0767 37.311 29.9577 37.71 29.8597 38.102C29.7617 38.494 29.7127 38.83 29.7127 39.11C29.7127 39.362 29.7687 39.565 29.8807 39.719C29.9927 39.873 30.1887 39.95 30.4687 39.95C30.7347 39.95 31.0287 39.824 31.3507 39.572C31.6867 39.306 32.0157 38.97 32.3377 38.564C32.6737 38.158 32.9817 37.724 33.2617 37.262C33.3037 37.108 33.3387 36.954 33.3667 36.8C33.4087 36.632 33.4437 36.464 33.4717 36.296C33.5137 36.1 33.6117 35.876 33.7657 35.624C33.9337 35.358 34.1927 35.225 34.5427 35.225C34.6687 35.225 34.8157 35.246 34.9837 35.288C34.9837 35.512 34.9137 35.932 34.7737 36.548C34.6477 37.15 34.4587 37.857 34.2067 38.669C33.9687 39.481 33.6817 40.314 33.3457 41.168C34.0037 40.916 34.6477 40.503 35.2777 39.929C35.9077 39.341 36.4187 38.564 36.8107 37.598L37.0837 37.808C36.8737 38.48 36.5517 39.068 36.1177 39.572C35.6977 40.062 35.2217 40.489 34.6897 40.853C34.1577 41.203 33.6327 41.497 33.1147 41.735C32.7507 42.631 32.3517 43.471 31.9177 44.255C31.4977 45.039 31.0497 45.669 30.5737 46.145C30.1117 46.635 29.6357 46.88 29.1457 46.88ZM29.0407 46.208C29.2507 46.208 29.6007 45.928 30.0907 45.368C30.5947 44.822 31.1267 43.856 31.6867 42.47C31.1127 42.778 30.5807 43.079 30.0907 43.373C29.6007 43.681 29.2087 44.01 28.9147 44.36C28.6207 44.71 28.4737 45.116 28.4737 45.578C28.4737 45.69 28.5157 45.823 28.5997 45.977C28.6837 46.131 28.8307 46.208 29.0407 46.208Z" fill="black"/>
</svg>
