<svg width="145" height="142" viewBox="0 0 145 142" fill="none" xmlns="http://www.w3.org/2000/svg">
<path d="M30.4393 52.568C28.9033 52.568 27.1966 52.248 25.3193 51.608C23.4846 50.968 21.5859 50.1787 19.6233 49.24C17.6606 48.344 15.7193 47.4693 13.7993 46.616C12.7326 47.8107 11.6233 48.728 10.4713 49.368C9.31925 50.0507 8.06058 50.392 6.69525 50.392C5.32992 50.392 4.17792 50.072 3.23925 49.432C2.25792 48.792 1.53258 48.024 1.06325 47.128C0.55125 46.2747 0.29525 45.5067 0.29525 44.824C0.29525 44.056 0.657917 43.3947 1.38325 42.84C2.06592 42.2853 3.26058 42.008 4.96725 42.008C6.07658 42.008 7.29258 42.136 8.61525 42.392C9.98058 42.648 11.3886 42.968 12.8393 43.352C13.8633 41.56 14.8019 39.4693 15.6553 37.08C16.5513 34.6907 17.4259 32.152 18.2793 29.464C19.1326 26.776 19.9859 24.088 20.8393 21.4C18.8766 20.76 17.3193 19.8213 16.1673 18.584C15.0579 17.3467 14.5033 16.0027 14.5033 14.552C14.5033 13.784 14.6526 13.016 14.9513 12.248C15.2926 11.48 15.7619 10.84 16.3593 10.328C16.9566 9.77333 17.6606 9.496 18.4713 9.496C18.1726 9.92266 17.9593 10.5413 17.8313 11.352C17.7033 12.1627 17.6393 12.8667 17.6393 13.464C17.6393 15.0853 17.9806 16.4507 18.6633 17.56C19.3459 18.6267 20.2206 19.4587 21.2873 20.056C22.1406 17.496 23.0153 15.0853 23.9113 12.824C24.8499 10.52 25.8739 8.472 26.9833 6.68C28.0926 4.888 29.3086 3.48 30.6313 2.456C31.9539 1.432 33.4259 0.919998 35.0473 0.919998C35.9006 0.919998 36.7966 1.112 37.7353 1.496C38.7166 1.88 39.5486 2.54133 40.2313 3.48C40.9139 4.41866 41.2553 5.74133 41.2553 7.448C41.2553 8.89866 40.9566 10.4773 40.3593 12.184C39.7619 13.848 38.8446 15.448 37.6073 16.984C36.3699 18.4773 34.7913 19.7147 32.8713 20.696C30.9513 21.6347 28.6899 22.1253 26.0873 22.168C26.0446 22.168 25.9379 22.168 25.7673 22.168C25.6393 22.168 25.3406 22.168 24.8713 22.168C24.0179 24.7707 23.1006 27.416 22.1193 30.104C21.1806 32.792 20.1779 35.352 19.1113 37.784C18.0446 40.1733 16.8926 42.3067 15.6553 44.184C17.6179 44.7813 19.6019 45.4 21.6073 46.04C23.6126 46.6373 25.5539 47.128 27.4313 47.512C29.3086 47.9387 31.0366 48.152 32.6153 48.152C33.5113 48.152 34.3219 48.0667 35.0473 47.896C35.7726 47.7253 36.4766 47.4693 37.1593 47.128C36.4766 49.0907 35.5593 50.4773 34.4073 51.288C33.2979 52.1413 31.9753 52.568 30.4393 52.568ZM6.43925 48.536C7.37792 48.536 8.25258 48.28 9.06325 47.768C9.91658 47.256 10.6846 46.5307 11.3673 45.592C10.0446 45.0373 8.74325 44.5893 7.46325 44.248C6.22592 43.864 5.09525 43.672 4.07125 43.672C3.26058 43.672 2.70592 43.7787 2.40725 43.992C2.10858 44.2053 1.95925 44.504 1.95925 44.888C1.95925 45.6133 2.38592 46.4027 3.23925 47.256C4.04992 48.1093 5.11658 48.536 6.43925 48.536ZM25.2553 20.952C27.1753 20.952 28.9033 20.4187 30.4393 19.352C32.0179 18.2427 33.3406 16.8773 34.4073 15.256C35.5166 13.592 36.3486 11.9067 36.9033 10.2C37.5006 8.49333 37.7993 7 37.7993 5.72C37.7993 4.48266 37.5646 3.65067 37.0953 3.224C36.6259 2.75466 36.0926 2.52 35.4953 2.52C34.1726 2.52 32.9353 3.37333 31.7833 5.08C30.6313 6.78667 29.5219 9.048 28.4553 11.864C27.4313 14.6373 26.3646 17.6667 25.2553 20.952ZM47.5058 49.816C44.9031 49.816 42.9404 49.0907 41.6178 47.64C40.3377 46.232 39.6977 44.4827 39.6977 42.392C39.6977 40.472 40.1671 38.4453 41.1058 36.312C42.0871 34.1787 43.3671 32.1733 44.9458 30.296C46.5671 28.4187 48.3378 26.904 50.2578 25.752C52.1778 24.5573 54.0764 23.96 55.9538 23.96C56.9351 23.96 57.8311 24.216 58.6418 24.728C59.4951 25.24 59.9218 26.2853 59.9218 27.864C59.9218 29.4853 59.4311 31.0213 58.4498 32.472C57.5111 33.88 56.2524 35.1387 54.6738 36.248C53.1378 37.3573 51.4311 38.2747 49.5538 39C47.7191 39.6827 45.8844 40.1093 44.0498 40.28C43.9644 40.7067 43.9004 41.112 43.8578 41.496C43.8151 41.88 43.7938 42.2427 43.7938 42.584C43.7938 43.224 43.8578 43.864 43.9858 44.504C44.1564 45.144 44.4338 45.7413 44.8177 46.296C45.2018 46.808 45.7138 47.2133 46.3538 47.512C47.0364 47.8107 47.8684 47.96 48.8498 47.96C50.6844 47.96 52.4978 47.448 54.2898 46.424C56.0818 45.3573 57.7458 43.9707 59.2818 42.264C60.8178 40.5573 62.1191 38.68 63.1858 36.632L63.9538 37.208C62.8018 39.768 61.3298 41.9867 59.5378 43.864C57.7884 45.7413 55.8684 47.192 53.7778 48.216C51.7298 49.2827 49.6391 49.816 47.5058 49.816ZM44.3698 39.064C45.5218 38.68 46.8231 38.1253 48.2738 37.4C49.7244 36.632 51.1111 35.736 52.4338 34.712C53.7991 33.688 54.9084 32.5573 55.7618 31.32C56.6578 30.0827 57.1058 28.7813 57.1058 27.416C57.1058 26.9467 57.0204 26.584 56.8498 26.328C56.6791 26.072 56.3164 25.944 55.7618 25.944C54.7378 25.944 53.6498 26.3493 52.4978 27.16C51.3458 27.928 50.2364 28.952 49.1698 30.232C48.1031 31.512 47.1431 32.92 46.2898 34.456C45.4364 35.992 44.7964 37.528 44.3698 39.064ZM67.3463 49.944C65.5116 49.944 64.1036 49.4107 63.1223 48.344C62.1409 47.2773 61.6502 45.6987 61.6502 43.608C61.6502 41.7307 61.9916 39.4267 62.6743 36.696C63.3996 33.9227 64.2956 31.0853 65.3623 28.184C64.9356 28.0987 64.5303 28.0347 64.1463 27.992C63.7623 27.9067 63.3996 27.8 63.0583 27.672V26.52C63.3996 26.5627 63.8049 26.6053 64.2743 26.648C64.7436 26.6907 65.2769 26.7333 65.8743 26.776C66.7703 24.472 67.7303 22.2533 68.7543 20.12C69.7783 17.944 70.7809 16.024 71.7623 14.36C72.7863 12.6533 73.7463 11.3093 74.6423 10.328C75.5809 9.304 76.3703 8.792 77.0103 8.792C77.3516 8.792 77.6503 8.92 77.9062 9.176C78.2049 9.38933 78.3542 9.73066 78.3542 10.2C78.3542 10.9253 77.9063 12.12 77.0103 13.784C76.1143 15.4053 75.0049 17.3467 73.6823 19.608C72.3596 21.8693 71.0796 24.3227 69.8423 26.968C70.2263 26.968 70.6103 26.968 70.9943 26.968C71.4209 26.968 71.8263 26.968 72.2103 26.968C73.6183 26.968 75.0903 26.9467 76.6263 26.904C78.2049 26.8613 79.7836 26.7547 81.3623 26.584V27.736C79.0156 27.992 76.9036 28.184 75.0263 28.312C73.1916 28.44 71.5489 28.504 70.0983 28.504C69.9276 28.504 69.7569 28.504 69.5863 28.504C69.4583 28.504 69.3089 28.504 69.1383 28.504C68.1569 30.7653 67.3249 33.0907 66.6423 35.48C65.9596 37.8693 65.6183 40.1947 65.6183 42.456C65.6183 44.2907 65.8956 45.6133 66.4503 46.424C67.0049 47.192 67.9223 47.576 69.2023 47.576C71.4209 47.576 73.5969 46.5947 75.7303 44.632C77.8636 42.6693 79.7409 40.0027 81.3623 36.632L82.1943 37.272C81.1703 39.6613 79.8689 41.816 78.2903 43.736C76.7543 45.656 75.0476 47.1707 73.1703 48.28C71.2929 49.3893 69.3516 49.944 67.3463 49.944ZM85.5963 49.944C83.7616 49.944 82.3536 49.4107 81.3723 48.344C80.3909 47.2773 79.9002 45.6987 79.9002 43.608C79.9002 41.7307 80.2416 39.4267 80.9243 36.696C81.6496 33.9227 82.5456 31.0853 83.6123 28.184C83.1856 28.0987 82.7803 28.0347 82.3963 27.992C82.0123 27.9067 81.6496 27.8 81.3083 27.672V26.52C81.6496 26.5627 82.0549 26.6053 82.5243 26.648C82.9936 26.6907 83.5269 26.7333 84.1243 26.776C85.0203 24.472 85.9803 22.2533 87.0043 20.12C88.0283 17.944 89.0309 16.024 90.0123 14.36C91.0363 12.6533 91.9963 11.3093 92.8923 10.328C93.8309 9.304 94.6203 8.792 95.2603 8.792C95.6016 8.792 95.9003 8.92 96.1562 9.176C96.4549 9.38933 96.6042 9.73066 96.6042 10.2C96.6042 10.9253 96.1563 12.12 95.2603 13.784C94.3643 15.4053 93.2549 17.3467 91.9323 19.608C90.6096 21.8693 89.3296 24.3227 88.0923 26.968C88.4763 26.968 88.8603 26.968 89.2443 26.968C89.6709 26.968 90.0763 26.968 90.4603 26.968C91.8683 26.968 93.3403 26.9467 94.8763 26.904C96.4549 26.8613 98.0336 26.7547 99.6123 26.584V27.736C97.2656 27.992 95.1536 28.184 93.2763 28.312C91.4416 28.44 89.7989 28.504 88.3483 28.504C88.1776 28.504 88.0069 28.504 87.8363 28.504C87.7083 28.504 87.5589 28.504 87.3883 28.504C86.4069 30.7653 85.5749 33.0907 84.8923 35.48C84.2096 37.8693 83.8683 40.1947 83.8683 42.456C83.8683 44.2907 84.1456 45.6133 84.7003 46.424C85.2549 47.192 86.1723 47.576 87.4523 47.576C89.6709 47.576 91.8469 46.5947 93.9803 44.632C96.1136 42.6693 97.9909 40.0027 99.6123 36.632L100.444 37.272C99.4203 39.6613 98.1189 41.816 96.5403 43.736C95.0043 45.656 93.2976 47.1707 91.4203 48.28C89.5429 49.3893 87.6016 49.944 85.5963 49.944ZM105.318 49.816C102.716 49.816 100.753 49.0907 99.4303 47.64C98.1502 46.232 97.5102 44.4827 97.5102 42.392C97.5102 40.472 97.9796 38.4453 98.9183 36.312C99.8996 34.1787 101.18 32.1733 102.758 30.296C104.38 28.4187 106.15 26.904 108.07 25.752C109.99 24.5573 111.889 23.96 113.766 23.96C114.748 23.96 115.644 24.216 116.454 24.728C117.308 25.24 117.734 26.2853 117.734 27.864C117.734 29.4853 117.244 31.0213 116.262 32.472C115.324 33.88 114.065 35.1387 112.486 36.248C110.95 37.3573 109.244 38.2747 107.366 39C105.532 39.6827 103.697 40.1093 101.862 40.28C101.777 40.7067 101.713 41.112 101.67 41.496C101.628 41.88 101.606 42.2427 101.606 42.584C101.606 43.224 101.67 43.864 101.798 44.504C101.969 45.144 102.246 45.7413 102.63 46.296C103.014 46.808 103.526 47.2133 104.166 47.512C104.849 47.8107 105.681 47.96 106.662 47.96C108.497 47.96 110.31 47.448 112.102 46.424C113.894 45.3573 115.558 43.9707 117.094 42.264C118.63 40.5573 119.932 38.68 120.998 36.632L121.766 37.208C120.614 39.768 119.142 41.9867 117.35 43.864C115.601 45.7413 113.681 47.192 111.59 48.216C109.542 49.2827 107.452 49.816 105.318 49.816ZM102.182 39.064C103.334 38.68 104.636 38.1253 106.086 37.4C107.537 36.632 108.924 35.736 110.246 34.712C111.612 33.688 112.721 32.5573 113.574 31.32C114.47 30.0827 114.918 28.7813 114.918 27.416C114.918 26.9467 114.833 26.584 114.662 26.328C114.492 26.072 114.129 25.944 113.574 25.944C112.55 25.944 111.462 26.3493 110.31 27.16C109.158 27.928 108.049 28.952 106.982 30.232C105.916 31.512 104.956 32.92 104.102 34.456C103.249 35.992 102.609 37.528 102.182 39.064ZM130.791 48.664C129.34 48.664 128.188 48.28 127.335 47.512C126.524 46.744 126.119 45.7413 126.119 44.504C126.119 43.224 126.417 41.88 127.015 40.472C127.612 39.064 128.188 37.6773 128.743 36.312C129.34 34.904 129.639 33.6453 129.639 32.536C129.639 31.1707 129.233 30.168 128.423 29.528C127.655 28.8453 126.865 28.2267 126.055 27.672C125.073 30.1893 124.049 32.5787 122.983 34.84C121.916 37.1013 121.041 38.808 120.359 39.96L119.783 38.872C120.38 37.7627 121.148 36.1413 122.087 34.008C123.068 31.8747 124.028 29.4427 124.967 26.712C124.54 26.2853 124.327 25.7733 124.327 25.176C124.327 23.896 124.689 22.8507 125.415 22.04C126.14 21.2293 126.673 20.824 127.015 20.824C127.484 20.824 127.74 21.0373 127.783 21.464C127.868 21.848 127.911 22.1467 127.911 22.36C127.911 22.5733 127.783 23 127.527 23.64C127.313 24.2373 127.207 24.6 127.207 24.728C127.207 25.3253 127.527 25.88 128.167 26.392C128.849 26.8613 129.617 27.416 130.471 28.056C131.324 28.6533 132.071 29.4 132.711 30.296C133.393 31.1493 133.735 32.2587 133.735 33.624C133.735 34.904 133.457 36.2053 132.903 37.528C132.391 38.8507 131.857 40.1093 131.303 41.304C130.791 42.4987 130.535 43.544 130.535 44.44C130.535 45.208 130.727 45.72 131.111 45.976C131.495 46.232 131.943 46.36 132.455 46.36C133.479 46.36 134.524 46.04 135.591 45.4C136.7 44.76 137.767 43.9493 138.791 42.968C139.815 41.9867 140.732 40.9627 141.543 39.896C142.353 38.7867 142.951 37.7627 143.335 36.824L144.167 37.464C143.356 39.256 142.247 41.0267 140.839 42.776C139.431 44.4827 137.852 45.8907 136.103 47C134.396 48.1093 132.625 48.664 130.791 48.664ZM42.1468 129.504C41.1654 129.504 40.1201 129.312 39.0108 128.928C37.9441 128.544 37.0481 127.755 36.3227 126.56C35.5974 125.365 35.2347 123.573 35.2347 121.184C35.2347 119.52 35.4267 117.877 35.8107 116.256C36.1947 114.592 36.7494 113.205 37.4748 112.096C38.2428 110.987 39.1174 110.432 40.0988 110.432C40.6108 110.432 41.2081 110.603 41.8908 110.944C41.1228 112.907 40.5468 114.741 40.1628 116.448C39.7788 118.155 39.5868 119.733 39.5868 121.184C39.5868 123.104 39.9281 124.597 40.6108 125.664C41.2934 126.731 42.2961 127.264 43.6188 127.264C44.7281 127.264 45.7094 126.795 46.5628 125.856C47.4588 124.917 48.3761 123.147 49.3148 120.544C49.9974 118.667 50.7014 116.405 51.4268 113.76C52.1948 111.072 52.9414 108.213 53.6667 105.184C54.4348 102.112 55.1601 99.0827 55.8428 96.096C56.5254 93.0667 57.1441 90.272 57.6988 87.712C58.2534 85.152 58.6801 83.0187 58.9788 81.312C56.8881 81.312 55.1174 81.3547 53.6667 81.44C52.2588 81.5253 50.9788 81.6533 49.8268 81.824C48.6748 81.9947 47.4161 82.2507 46.0508 82.592C46.2641 81.1413 47.1814 80.032 48.8028 79.264C50.4668 78.4533 53.0268 78.048 56.4828 78.048C58.1894 78.048 59.9174 78.1333 61.6668 78.304C63.4161 78.4747 65.0161 78.6667 66.4668 78.88C67.9601 79.0507 69.0908 79.2213 69.8588 79.392C69.3894 80.2027 68.6214 80.7147 67.5548 80.928C66.4881 81.1413 65.6134 81.248 64.9308 81.248C64.0774 81.248 63.2668 81.2693 62.4988 81.312C61.7734 81.312 61.0694 81.312 60.3868 81.312C60.8561 81.6533 61.1974 82.1227 61.4108 82.72C61.6241 83.3173 61.7308 83.8507 61.7308 84.32C61.7308 84.8747 61.5814 86.112 61.2828 88.032C60.9841 89.9093 60.5574 92.192 60.0028 94.88C59.4481 97.568 58.7868 100.427 58.0188 103.456C57.2508 106.485 56.4188 109.451 55.5228 112.352C54.6268 115.253 53.6668 117.835 52.6428 120.096C51.5334 122.656 50.4028 124.597 49.2508 125.92C48.1414 127.285 46.9894 128.224 45.7948 128.736C44.6428 129.248 43.4268 129.504 42.1468 129.504ZM65.9473 126.048C64.1126 126.048 62.8113 125.472 62.0433 124.32C61.2752 123.211 60.8912 121.845 60.8912 120.224C60.8912 118.901 61.1046 117.536 61.5312 116.128C61.9579 114.72 62.5126 113.397 63.1953 112.16C63.9206 110.923 64.7099 109.92 65.5633 109.152C66.4593 108.384 67.3553 108 68.2513 108C68.4646 108 68.6779 108.043 68.8913 108.128C69.1473 108.171 69.3819 108.235 69.5953 108.32C69.2113 108.661 68.7419 109.301 68.1873 110.24C67.6753 111.136 67.1846 112.181 66.7153 113.376C66.2459 114.528 65.8406 115.68 65.4993 116.832C65.2006 117.984 65.0513 118.965 65.0513 119.776C65.0513 121.056 65.2646 121.995 65.6913 122.592C66.1179 123.147 66.6726 123.424 67.3553 123.424C68.2513 123.424 69.3179 122.955 70.5553 122.016C71.7926 121.035 73.0086 119.797 74.2033 118.304C73.0086 117.323 72.0699 116.043 71.3873 114.464C70.7473 112.843 70.4273 111.2 70.4273 109.536C70.4273 108.128 70.6619 106.805 71.1313 105.568C71.6433 104.331 72.3686 103.349 73.3073 102.624C74.2459 101.856 75.3766 101.472 76.6993 101.472C78.4486 101.472 79.6219 101.941 80.2193 102.88C80.8166 103.819 81.1153 104.992 81.1153 106.4C81.1153 108.064 80.7099 109.92 79.8993 111.968C79.0886 113.973 78.0646 115.915 76.8273 117.792C77.5953 118.219 78.4059 118.432 79.2593 118.432C79.9419 118.432 80.7099 118.304 81.5633 118.048C82.4166 117.749 83.2486 117.259 84.0593 116.576C84.9126 115.893 85.5953 114.976 86.1073 113.824L86.8753 114.464C86.0219 116.469 84.8059 117.899 83.2273 118.752C81.6913 119.563 80.2193 119.968 78.8113 119.968C78.2566 119.968 77.7233 119.925 77.2113 119.84C76.6993 119.712 76.2086 119.541 75.7393 119.328C74.2886 121.248 72.6886 122.848 70.9392 124.128C69.2326 125.408 67.5686 126.048 65.9473 126.048ZM75.3553 116.64C76.4219 115.061 77.2966 113.419 77.9792 111.712C78.7046 109.963 79.0673 108.32 79.0673 106.784C79.0673 105.547 78.8753 104.651 78.4913 104.096C78.1499 103.499 77.7019 103.2 77.1473 103.2C76.2939 103.2 75.4193 103.819 74.5233 105.056C73.6273 106.293 73.1793 107.851 73.1793 109.728C73.1793 110.965 73.3499 112.224 73.6913 113.504C74.0753 114.741 74.6299 115.787 75.3553 116.64ZM87.6583 141.92C86.5916 141.92 85.6529 141.621 84.8422 141.024C84.0316 140.469 83.6262 139.637 83.6262 138.528C83.6262 137.163 83.9676 135.947 84.6502 134.88C85.3329 133.813 86.2503 132.832 87.4023 131.936C88.5543 131.04 89.8769 130.187 91.3703 129.376C92.8636 128.565 94.4209 127.755 96.0423 126.944C96.6396 125.365 97.2369 123.616 97.8343 121.696C98.4743 119.733 99.0716 117.579 99.6263 115.232C98.2609 117.451 96.7889 119.371 95.2103 120.992C93.6743 122.571 92.0316 123.36 90.2823 123.36C89.4716 123.36 88.6609 123.189 87.8503 122.848C87.0823 122.464 86.4423 121.888 85.9303 121.12C85.4183 120.352 85.1623 119.371 85.1623 118.176C85.1623 116.981 85.3543 115.595 85.7383 114.016C86.1649 112.437 86.6769 110.901 87.2743 109.408C87.8716 107.915 88.4903 106.677 89.1302 105.696C89.7703 104.715 90.3249 104.224 90.7943 104.224C90.9649 104.224 91.2636 104.288 91.6903 104.416C92.1596 104.544 92.5863 104.736 92.9703 104.992C93.3969 105.205 93.6103 105.44 93.6103 105.696C93.2263 106.251 92.7996 107.04 92.3303 108.064C91.8609 109.088 91.3916 110.24 90.9223 111.52C90.4956 112.757 90.1329 113.973 89.8343 115.168C89.5356 116.363 89.3863 117.387 89.3863 118.24C89.3863 119.008 89.5569 119.627 89.8983 120.096C90.2396 120.565 90.8369 120.8 91.6903 120.8C92.5009 120.8 93.3969 120.416 94.3783 119.648C95.4023 118.837 96.4049 117.813 97.3863 116.576C98.4103 115.339 99.3489 114.016 100.202 112.608C100.33 112.139 100.437 111.669 100.522 111.2C100.65 110.688 100.757 110.176 100.842 109.664C100.97 109.067 101.269 108.384 101.738 107.616C102.25 106.805 103.04 106.4 104.106 106.4C104.32 106.4 104.533 106.421 104.746 106.464C104.96 106.464 105.194 106.507 105.45 106.592C105.45 107.275 105.237 108.555 104.81 110.432C104.426 112.267 103.85 114.421 103.082 116.896C102.357 119.371 101.482 121.909 100.458 124.512C102.464 123.744 104.426 122.485 106.346 120.736C108.266 118.944 109.824 116.576 111.018 113.632L111.85 114.272C111.21 116.32 110.229 118.112 108.906 119.648C107.626 121.141 106.176 122.443 104.554 123.552C102.933 124.619 101.333 125.515 99.7543 126.24C98.6449 128.971 97.4289 131.531 96.1063 133.92C94.8263 136.309 93.4609 138.229 92.0103 139.68C90.6023 141.173 89.1516 141.92 87.6583 141.92ZM87.3383 139.872C87.9783 139.872 89.0449 139.019 90.5383 137.312C92.0743 135.648 93.6956 132.704 95.4023 128.48C93.6529 129.419 92.0316 130.336 90.5383 131.232C89.0449 132.171 87.8503 133.173 86.9543 134.24C86.0583 135.307 85.6103 136.544 85.6103 137.952C85.6103 138.293 85.7383 138.699 85.9943 139.168C86.2503 139.637 86.6983 139.872 87.3383 139.872Z" fill="black"/>
</svg>
