<svg width="85" height="103" viewBox="0 0 85 103" fill="none" xmlns="http://www.w3.org/2000/svg">
<path d="M84.704 96.24C84.896 97.008 84.992 97.584 84.992 97.968C84.992 99.216 84.56 100.224 83.696 100.992C82.832 101.76 81.824 102.144 80.672 102.144C79.712 102.144 78.848 101.904 78.08 101.424C77.408 100.848 76.88 100.128 76.496 99.264L65.696 72.912H18.896L8.24 99.264C7.472 101.184 6.176 102.144 4.35199 102.144C3.008 102.144 2 101.808 1.32799 101.136C0.655995 100.464 0.271995 99.552 0.175995 98.4V97.968C0.175995 97.392 0.223995 96.96 0.319995 96.672L38.336 3.648C39.104 1.728 40.544 0.768005 42.656 0.768005C43.616 0.768005 44.432 1.056 45.104 1.632C45.872 2.112 46.448 2.784 46.832 3.648L84.704 96.24ZM62.24 64.416L42.08 15.168L22.208 64.416H62.24Z" fill="black"/>
</svg>
