<svg width="43" height="52" viewBox="0 0 43 52" fill="none" xmlns="http://www.w3.org/2000/svg">
<path d="M42.5434 48.12C42.6394 48.504 42.6874 48.792 42.6874 48.984C42.6874 49.608 42.4714 50.112 42.0394 50.496C41.6074 50.88 41.1034 51.072 40.5274 51.072C40.0474 51.072 39.6154 50.952 39.2314 50.712C38.8954 50.424 38.6314 50.064 38.4394 49.632L33.0394 36.456H9.63941L4.31141 49.632C3.92741 50.592 3.27941 51.072 2.36741 51.072C1.69541 51.072 1.19141 50.904 0.855406 50.568C0.519406 50.232 0.327406 49.776 0.279406 49.2V48.984C0.279406 48.696 0.303406 48.48 0.351406 48.336L19.3594 1.824C19.7434 0.863999 20.4634 0.383999 21.5194 0.383999C21.9994 0.383999 22.4074 0.527999 22.7434 0.815998C23.1274 1.056 23.4154 1.392 23.6074 1.824L42.5434 48.12ZM31.3114 32.208L21.2314 7.584L11.2954 32.208H31.3114Z" fill="black"/>
</svg>
