<svg width="38" height="51" viewBox="0 0 38 51" fill="none" xmlns="http://www.w3.org/2000/svg">
<path d="M27.7468 24.216C30.6268 24.936 32.9788 26.376 34.8028 28.536C36.6268 30.696 37.5388 33.504 37.5388 36.96C37.5388 41.664 36.0748 45.192 33.1468 47.544C30.2668 49.848 26.6668 51 22.3468 51H2.97878C2.35478 51 1.82678 50.808 1.39478 50.424C1.01078 49.992 0.818782 49.464 0.818782 48.84V2.76C0.818782 2.136 1.01078 1.632 1.39478 1.248C1.82678 0.815997 2.35478 0.599997 2.97878 0.599997H22.0588C26.0908 0.599997 29.2348 1.704 31.4908 3.912C33.7948 6.12 34.9468 9.144 34.9468 12.984C34.9468 15.528 34.3228 17.808 33.0748 19.824C31.8268 21.84 30.0508 23.304 27.7468 24.216ZM30.3388 13.344C30.3388 10.704 29.5468 8.64 27.9628 7.152C26.4268 5.616 24.2668 4.848 21.4828 4.848H5.42678V22.848H21.4828C24.0748 22.8 26.1868 21.96 27.8188 20.328C29.4988 18.696 30.3388 16.368 30.3388 13.344ZM22.1308 46.752C25.3468 46.752 27.9388 45.936 29.9068 44.304C31.9228 42.672 32.9308 40.224 32.9308 36.96C32.9308 33.6 31.8988 31.128 29.8348 29.544C27.8188 27.96 25.2028 27.168 21.9868 27.168H5.42678V46.752H22.1308Z" fill="black"/>
</svg>
