<svg width="43" height="53" viewBox="0 0 43 53" fill="none" xmlns="http://www.w3.org/2000/svg">
<path d="M41.0405 5.344C41.7605 5.776 42.1205 6.376 42.1205 7.144C42.1205 7.576 41.9525 8.056 41.6165 8.584C41.1845 9.112 40.6325 9.376 39.9605 9.376C39.5765 9.376 39.1925 9.256 38.8085 9.016C34.9685 6.472 30.7685 5.2 26.2085 5.2C22.3205 5.2 18.7925 6.112 15.6245 7.936C12.5045 9.76 10.0325 12.328 8.20847 15.64C6.43247 18.904 5.54447 22.624 5.54447 26.8C5.54447 31.072 6.45647 34.864 8.28047 38.176C10.1045 41.44 12.5765 43.984 15.6965 45.808C18.8645 47.584 22.3685 48.472 26.2085 48.472C30.7685 48.472 34.9445 47.224 38.7365 44.728C39.1205 44.488 39.5285 44.368 39.9605 44.368C40.6325 44.368 41.1845 44.656 41.6165 45.232C41.9525 45.616 42.1205 46.072 42.1205 46.6C42.1205 47.368 41.7845 47.944 41.1125 48.328C39.2405 49.576 36.9365 50.632 34.2005 51.496C31.4645 52.312 28.8005 52.72 26.2085 52.72C21.6485 52.72 17.4245 51.64 13.5365 49.48C9.69647 47.272 6.62447 44.2 4.32047 40.264C2.06447 36.328 0.936469 31.84 0.936469 26.8C0.936469 21.952 2.06447 17.56 4.32047 13.624C6.57647 9.64 9.62447 6.544 13.4645 4.336C17.3045 2.08 21.5525 0.951996 26.2085 0.951996C28.8965 0.951996 31.5125 1.336 34.0565 2.104C36.6485 2.872 38.9765 3.952 41.0405 5.344Z" fill="black"/>
</svg>
