<svg width="84" height="105" viewBox="0 0 84 105" fill="none" xmlns="http://www.w3.org/2000/svg">
<path d="M81.12 9.688C82.56 10.552 83.28 11.752 83.28 13.288C83.28 14.152 82.944 15.112 82.272 16.168C81.408 17.224 80.304 17.752 78.96 17.752C78.192 17.752 77.424 17.512 76.656 17.032C68.976 11.944 60.576 9.39999 51.456 9.39999C43.68 9.39999 36.624 11.224 30.288 14.872C24.048 18.52 19.104 23.656 15.456 30.28C11.904 36.808 10.128 44.248 10.128 52.6C10.128 61.144 11.952 68.728 15.6 75.352C19.248 81.88 24.192 86.968 30.432 90.616C36.768 94.168 43.776 95.944 51.456 95.944C60.576 95.944 68.928 93.448 76.512 88.456C77.28 87.976 78.096 87.736 78.96 87.736C80.304 87.736 81.408 88.312 82.272 89.464C82.944 90.232 83.28 91.144 83.28 92.2C83.28 93.736 82.608 94.888 81.264 95.656C77.52 98.152 72.912 100.264 67.44 101.992C61.968 103.624 56.64 104.44 51.456 104.44C42.336 104.44 33.888 102.28 26.112 97.96C18.432 93.544 12.288 87.4 7.68 79.528C3.168 71.656 0.912003 62.68 0.912003 52.6C0.912003 42.904 3.168 34.12 7.68 26.248C12.192 18.28 18.288 12.088 25.968 7.67199C33.648 3.15999 42.144 0.903992 51.456 0.903992C56.832 0.903992 62.064 1.67199 67.152 3.208C72.336 4.74399 76.992 6.90399 81.12 9.688Z" fill="black"/>
</svg>
