<svg width="43" height="51" viewBox="0 0 43 51" fill="none" xmlns="http://www.w3.org/2000/svg">
<path d="M21.413 0.599997C26.021 0.599997 29.885 1.752 33.005 4.056C36.173 6.312 38.525 9.36 40.061 13.2C41.645 16.992 42.437 21.192 42.437 25.8C42.437 30.552 41.645 34.824 40.061 38.616C38.525 42.408 36.173 45.432 33.005 47.688C29.885 49.896 26.021 51 21.413 51H3.053C2.429 51 1.901 50.808 1.469 50.424C1.085 49.992 0.893 49.464 0.893 48.84V2.76C0.893 2.136 1.085 1.632 1.469 1.248C1.901 0.815997 2.429 0.599997 3.053 0.599997H21.413ZM20.693 46.752C26.453 46.752 30.749 44.832 33.581 40.992C36.413 37.104 37.829 32.04 37.829 25.8C37.829 21.912 37.229 18.408 36.029 15.288C34.829 12.12 32.933 9.6 30.341 7.728C27.797 5.808 24.581 4.848 20.693 4.848H5.429V46.752H20.693Z" fill="currentColor"/>
</svg>
