<svg width="32" height="51" viewBox="0 0 32 51" fill="none" xmlns="http://www.w3.org/2000/svg">
<path d="M29.3911 46.752C30.0151 46.752 30.5191 46.968 30.9031 47.4C31.3351 47.832 31.5511 48.336 31.5511 48.912C31.5511 49.536 31.3351 50.04 30.9031 50.424C30.5191 50.808 30.0151 51 29.3911 51H2.96706C2.34306 51 1.81506 50.808 1.38306 50.424C0.999063 49.992 0.807063 49.464 0.807063 48.84V2.76C0.807063 2.136 0.999063 1.632 1.38306 1.248C1.81506 0.815997 2.34306 0.599997 2.96706 0.599997H29.3911C30.0151 0.599997 30.5191 0.815997 30.9031 1.248C31.3351 1.632 31.5511 2.136 31.5511 2.76C31.5511 3.384 31.3351 3.888 30.9031 4.272C30.5191 4.656 30.0151 4.848 29.3911 4.848H5.34306V22.92H26.1511C26.7751 22.92 27.2791 23.136 27.6631 23.568C28.0951 23.952 28.3111 24.456 28.3111 25.08C28.3111 25.704 28.0951 26.208 27.6631 26.592C27.2791 26.976 26.7751 27.168 26.1511 27.168H5.34306V46.752H29.3911Z" fill="currentColor"/>
</svg>
