<svg width="62" height="101" viewBox="0 0 62 101" fill="none" xmlns="http://www.w3.org/2000/svg">
<path d="M57.272 0.199997C58.52 0.199997 59.528 0.631997 60.296 1.496C61.16 2.264 61.592 3.272 61.592 4.52C61.592 5.672 61.16 6.68 60.296 7.544C59.528 8.312 58.52 8.696 57.272 8.696H9.31999V44.84H50.792C52.04 44.84 53.048 45.224 53.816 45.992C54.68 46.76 55.112 47.768 55.112 49.016C55.112 50.264 54.68 51.272 53.816 52.04C53.048 52.808 52.04 53.192 50.792 53.192H9.31999V96.68C9.31999 97.928 8.888 98.984 8.024 99.848C7.256 100.616 6.248 101 4.99999 101C3.656 101 2.552 100.616 1.688 99.848C0.919996 98.984 0.535995 97.928 0.535995 96.68V4.52C0.535995 3.272 0.919996 2.264 1.688 1.496C2.552 0.631997 3.608 0.199997 4.856 0.199997H57.272Z" fill="black"/>
</svg>
