<svg width="32" height="51" viewBox="0 0 32 51" fill="none" xmlns="http://www.w3.org/2000/svg">
<path d="M29.2454 0.599997C29.8694 0.599997 30.3734 0.815997 30.7574 1.248C31.1894 1.632 31.4054 2.136 31.4054 2.76C31.4054 3.336 31.1894 3.84 30.7574 4.272C30.3734 4.656 29.8694 4.848 29.2454 4.848H5.26938V22.92H26.0054C26.6294 22.92 27.1334 23.112 27.5174 23.496C27.9494 23.88 28.1654 24.384 28.1654 25.008C28.1654 25.632 27.9494 26.136 27.5174 26.52C27.1334 26.904 26.6294 27.096 26.0054 27.096H5.26938V48.84C5.26938 49.464 5.05338 49.992 4.62138 50.424C4.23738 50.808 3.73338 51 3.10938 51C2.43738 51 1.88538 50.808 1.45338 50.424C1.06938 49.992 0.877375 49.464 0.877375 48.84V2.76C0.877375 2.136 1.06938 1.632 1.45338 1.248C1.88538 0.815997 2.41338 0.599997 3.03738 0.599997H29.2454Z" fill="black"/>
</svg>
