<svg width="44" height="53" viewBox="0 0 44 53" fill="none" xmlns="http://www.w3.org/2000/svg">
<path d="M41.0288 26.584C41.6528 26.584 42.1568 26.8 42.5408 27.232C42.9728 27.616 43.1888 28.12 43.1888 28.744V46.096C43.1888 46.912 42.8288 47.56 42.1088 48.04C39.9488 49.528 37.5488 50.68 34.9088 51.496C32.2688 52.312 29.5808 52.72 26.8448 52.72C21.9488 52.72 17.5328 51.592 13.5968 49.336C9.66075 47.08 6.56475 43.984 4.30875 40.048C2.05275 36.112 0.92475 31.696 0.92475 26.8C0.92475 21.904 2.05275 17.488 4.30875 13.552C6.56475 9.616 9.66075 6.52 13.5968 4.264C17.5328 2.008 21.9488 0.879997 26.8448 0.879997C29.3888 0.879997 31.8368 1.192 34.1888 1.816C36.5888 2.44 38.7248 3.328 40.5968 4.48C41.2688 4.912 41.6048 5.512 41.6048 6.28C41.6048 6.904 41.3888 7.432 40.9568 7.864C40.5728 8.296 40.1168 8.512 39.5888 8.512C39.1088 8.512 38.6768 8.392 38.2928 8.152C34.6928 6.184 30.8768 5.2 26.8448 5.2C22.7648 5.2 19.0928 6.136 15.8288 8.008C12.6128 9.88 10.0928 12.472 8.26875 15.784C6.44475 19.048 5.53275 22.72 5.53275 26.8C5.53275 30.88 6.44475 34.576 8.26875 37.888C10.0928 41.152 12.6128 43.72 15.8288 45.592C19.0928 47.464 22.7648 48.4 26.8448 48.4C28.9088 48.4 30.9728 48.112 33.0368 47.536C35.1488 46.96 37.0208 46.168 38.6528 45.16V30.904H27.2768C26.6528 30.904 26.1248 30.712 25.6928 30.328C25.2608 29.896 25.0448 29.368 25.0448 28.744C25.0448 28.12 25.2608 27.616 25.6928 27.232C26.1248 26.8 26.6528 26.584 27.2768 26.584H41.0288Z" fill="currentColor"/>
</svg>
