<svg width="40" height="51" viewBox="0 0 40 51" fill="none" xmlns="http://www.w3.org/2000/svg">
<path d="M36.9298 0.599997C37.6018 0.599997 38.1298 0.815997 38.5138 1.248C38.9458 1.632 39.1618 2.16 39.1618 2.832V48.768C39.1138 49.44 38.8738 49.992 38.4418 50.424C38.0098 50.808 37.4818 51 36.8578 51C36.2338 51 35.7058 50.784 35.2738 50.352C34.8418 49.92 34.6258 49.392 34.6258 48.768V27.312H5.39384V48.768C5.34584 49.392 5.10584 49.92 4.67384 50.352C4.24184 50.784 3.71384 51 3.08984 51C2.41784 51 1.86584 50.808 1.43384 50.424C1.04984 49.992 0.857844 49.44 0.857844 48.768V2.832C0.857844 2.16 1.07384 1.632 1.50584 1.248C1.93784 0.815997 2.48984 0.599997 3.16184 0.599997C3.78584 0.599997 4.31384 0.815997 4.74584 1.248C5.17784 1.68 5.39384 2.208 5.39384 2.832V23.136H34.6258V2.832C34.6258 2.208 34.8418 1.68 35.2738 1.248C35.7538 0.815997 36.3058 0.599997 36.9298 0.599997Z" fill="currentColor"/>
</svg>
