<svg width="40" height="52" viewBox="0 0 40 52" fill="none" xmlns="http://www.w3.org/2000/svg">
<path d="M38.919 47.472C39.255 47.952 39.423 48.456 39.423 48.984C39.423 49.704 39.159 50.28 38.631 50.712C38.151 51.096 37.599 51.288 36.975 51.288C36.351 51.288 35.823 51.024 35.391 50.496L15.303 25.224L5.51103 34.44V48.768C5.46303 49.44 5.22303 49.992 4.79103 50.424C4.35903 50.808 3.83103 51 3.20703 51C2.53503 51 1.98303 50.808 1.55103 50.424C1.16703 49.992 0.975032 49.44 0.975032 48.768V2.832C0.975032 2.16 1.19103 1.632 1.62303 1.248C2.05503 0.815997 2.60703 0.599997 3.27903 0.599997C3.95103 0.599997 4.47903 0.815997 4.86303 1.248C5.29503 1.632 5.51103 2.16 5.51103 2.832V28.968L34.599 1.464C35.031 0.983999 35.559 0.743999 36.183 0.743999C36.759 0.743999 37.239 0.959999 37.623 1.392C38.055 1.824 38.271 2.304 38.271 2.832C38.271 3.408 38.055 3.912 37.623 4.344L18.759 21.984L38.919 47.472Z" fill="currentColor"/>
</svg>
