<svg width="31" height="51" viewBox="0 0 31 51" fill="none" xmlns="http://www.w3.org/2000/svg">
<path d="M27.9718 46.752C28.5958 46.752 29.0998 46.944 29.4838 47.328C29.9158 47.712 30.1318 48.216 30.1318 48.84C30.1318 49.464 29.9158 49.992 29.4838 50.424C29.0998 50.808 28.5958 51 27.9718 51H2.26784C1.64384 51 1.11584 50.808 0.683844 50.424C0.299844 49.992 0.107844 49.464 0.107844 48.84V2.76C0.107844 2.136 0.323844 1.632 0.755844 1.248C1.18784 0.815997 1.73984 0.599997 2.41184 0.599997C3.03584 0.599997 3.56384 0.815997 3.99584 1.248C4.42784 1.632 4.64384 2.136 4.64384 2.76V46.752H27.9718Z" fill="currentColor"/>
</svg>
