<svg width="47" height="51" viewBox="0 0 47 51" fill="none" xmlns="http://www.w3.org/2000/svg">
<path d="M44.9107 0.599997C45.4867 0.599997 45.9667 0.815997 46.3507 1.248C46.7827 1.632 46.9987 2.136 46.9987 2.76V48.84C46.9987 49.464 46.7827 49.992 46.3507 50.424C45.9187 50.808 45.3907 51 44.7667 51C44.0947 51 43.5427 50.808 43.1107 50.424C42.6787 49.992 42.4627 49.464 42.4627 48.84V9.24L25.5427 34.872C25.0627 35.496 24.5107 35.784 23.8867 35.736H23.7427C23.1667 35.736 22.6387 35.448 22.1587 34.872L5.23866 9.096V48.84C5.23866 49.464 5.02266 49.992 4.59066 50.424C4.20666 50.808 3.70266 51 3.07866 51C2.45466 51 1.95066 50.808 1.56666 50.424C1.18266 49.992 0.990657 49.464 0.990657 48.84V2.76C0.990657 2.184 1.18266 1.68 1.56666 1.248C1.99866 0.815997 2.52666 0.599997 3.15066 0.599997C3.48666 0.599997 3.84666 0.695997 4.23066 0.887997C4.61466 1.032 4.90266 1.248 5.09466 1.536L23.9587 29.832L42.9667 1.536C43.4947 0.815998 44.1427 0.503998 44.9107 0.599997Z" fill="black"/>
</svg>
