<svg width="39" height="51" viewBox="0 0 39 51" fill="none" xmlns="http://www.w3.org/2000/svg">
<path d="M36.9406 0.599997C37.5646 0.599997 38.0446 0.791997 38.3806 1.176C38.7646 1.56 38.9566 2.04 38.9566 2.616V48.696C38.9566 49.416 38.7406 49.992 38.3086 50.424C37.8766 50.808 37.3486 51 36.7246 51C36.3886 51 36.0526 50.928 35.7166 50.784C35.4286 50.64 35.1886 50.472 34.9966 50.28L4.10859 8.664V49.056C4.10859 49.584 3.89259 50.04 3.46059 50.424C3.07659 50.808 2.62059 51 2.09259 51C1.51659 51 1.03659 50.808 0.652594 50.424C0.268594 50.04 0.0765941 49.584 0.0765941 49.056V2.76C0.0765941 2.088 0.268594 1.56 0.652594 1.176C1.08459 0.791997 1.58859 0.599997 2.16459 0.599997C2.93259 0.599997 3.50859 0.863997 3.89259 1.392L34.9246 43.224V2.616C34.9246 2.04 35.1166 1.56 35.5006 1.176C35.8846 0.791997 36.3646 0.599997 36.9406 0.599997Z" fill="black"/>
</svg>
