<svg width="98" height="105" viewBox="0 0 98 105" fill="none" xmlns="http://www.w3.org/2000/svg">
<path d="M97.392 52.6C97.392 62.488 95.328 71.368 91.2 79.24C87.072 87.112 81.36 93.304 74.064 97.816C66.768 102.232 58.464 104.44 49.152 104.44C39.84 104.44 31.536 102.232 24.24 97.816C16.944 93.304 11.232 87.112 7.104 79.24C2.976 71.368 0.912003 62.488 0.912003 52.6C0.912003 42.616 2.976 33.688 7.104 25.816C11.232 17.944 16.944 11.8 24.24 7.384C31.536 2.96799 39.84 0.759995 49.152 0.759995C58.464 0.759995 66.768 2.96799 74.064 7.384C81.36 11.8 87.072 17.944 91.2 25.816C95.328 33.688 97.392 42.616 97.392 52.6ZM88.176 52.6C88.176 44.248 86.496 36.808 83.136 30.28C79.872 23.656 75.264 18.52 69.312 14.872C63.456 11.224 56.736 9.39999 49.152 9.39999C41.568 9.39999 34.8 11.224 28.848 14.872C22.992 18.52 18.384 23.656 15.024 30.28C11.76 36.808 10.128 44.248 10.128 52.6C10.128 60.952 11.76 68.44 15.024 75.064C18.384 81.592 22.992 86.68 28.848 90.328C34.8 93.976 41.568 95.8 49.152 95.8C56.736 95.8 63.456 93.976 69.312 90.328C75.264 86.68 79.872 81.592 83.136 75.064C86.496 68.44 88.176 60.952 88.176 52.6Z" fill="black"/>
</svg>
