<svg width="50" height="53" viewBox="0 0 50 53" fill="none" xmlns="http://www.w3.org/2000/svg">
<path d="M49.1335 26.8C49.1335 31.744 48.1015 36.184 46.0375 40.12C43.9735 44.056 41.1175 47.152 37.4695 49.408C33.8215 51.616 29.6695 52.72 25.0135 52.72C20.3575 52.72 16.2055 51.616 12.5575 49.408C8.9095 47.152 6.0535 44.056 3.9895 40.12C1.9255 36.184 0.8935 31.744 0.8935 26.8C0.8935 21.808 1.9255 17.344 3.9895 13.408C6.0535 9.472 8.9095 6.4 12.5575 4.192C16.2055 1.984 20.3575 0.879997 25.0135 0.879997C29.6695 0.879997 33.8215 1.984 37.4695 4.192C41.1175 6.4 43.9735 9.472 46.0375 13.408C48.1015 17.344 49.1335 21.808 49.1335 26.8ZM44.5255 26.8C44.5255 22.624 43.6855 18.904 42.0055 15.64C40.3735 12.328 38.0695 9.76 35.0935 7.936C32.1655 6.112 28.8055 5.2 25.0135 5.2C21.2215 5.2 17.8375 6.112 14.8615 7.936C11.9335 9.76 9.6295 12.328 7.9495 15.64C6.3175 18.904 5.5015 22.624 5.5015 26.8C5.5015 30.976 6.3175 34.72 7.9495 38.032C9.6295 41.296 11.9335 43.84 14.8615 45.664C17.8375 47.488 21.2215 48.4 25.0135 48.4C28.8055 48.4 32.1655 47.488 35.0935 45.664C38.0695 43.84 40.3735 41.296 42.0055 38.032C43.6855 34.72 44.5255 30.976 44.5255 26.8Z" fill="black"/>
</svg>
