<svg width="67" height="101" viewBox="0 0 67 101" fill="none" xmlns="http://www.w3.org/2000/svg">
<path d="M38.984 0.199997C44.264 0.199997 49.016 1.448 53.24 3.944C57.464 6.344 60.728 9.752 63.032 14.168C65.432 18.488 66.632 23.384 66.632 28.856C66.632 34.328 65.432 39.32 63.032 43.832C60.728 48.344 57.464 51.896 53.24 54.488C49.016 57.08 44.264 58.376 38.984 58.376H9.176V96.68C9.176 97.928 8.744 98.984 7.88 99.848C7.112 100.616 6.104 101 4.856 101C3.608 101 2.552 100.616 1.688 99.848C0.92 98.984 0.536 97.928 0.536 96.68V4.52C0.536 3.272 0.92 2.264 1.688 1.496C2.552 0.631997 3.608 0.199997 4.856 0.199997H38.984ZM38.984 50.024C44.552 50.024 49.064 48.008 52.52 43.976C55.976 39.944 57.704 34.904 57.704 28.856C57.704 22.904 55.976 18.056 52.52 14.312C49.064 10.568 44.552 8.696 38.984 8.696H9.176V50.024H38.984Z" fill="black"/>
</svg>
