<svg width="34" height="51" viewBox="0 0 34 51" fill="none" xmlns="http://www.w3.org/2000/svg">
<path d="M20.0467 0.599997C22.6867 0.599997 25.0627 1.224 27.1747 2.472C29.2867 3.672 30.9187 5.376 32.0707 7.584C33.2707 9.744 33.8707 12.192 33.8707 14.928C33.8707 17.664 33.2707 20.16 32.0707 22.416C30.9187 24.672 29.2867 26.448 27.1747 27.744C25.0627 29.04 22.6867 29.688 20.0467 29.688H5.14269V48.84C5.14269 49.464 4.92669 49.992 4.49469 50.424C4.11069 50.808 3.60669 51 2.98269 51C2.35869 51 1.83069 50.808 1.39869 50.424C1.01469 49.992 0.822688 49.464 0.822688 48.84V2.76C0.822688 2.136 1.01469 1.632 1.39869 1.248C1.83069 0.815997 2.35869 0.599997 2.98269 0.599997H20.0467ZM20.0467 25.512C22.8307 25.512 25.0867 24.504 26.8147 22.488C28.5427 20.472 29.4067 17.952 29.4067 14.928C29.4067 11.952 28.5427 9.528 26.8147 7.656C25.0867 5.784 22.8307 4.848 20.0467 4.848H5.14269V25.512H20.0467Z" fill="black"/>
</svg>
