<svg width="77" height="101" viewBox="0 0 77 101" fill="none" xmlns="http://www.w3.org/2000/svg">
<path d="M74.12 93.224C75.56 94.184 76.28 95.384 76.28 96.824C76.28 97.304 76.088 97.928 75.704 98.696C75.32 99.368 74.792 99.896 74.12 100.28C73.448 100.664 72.728 100.856 71.96 100.856C71 100.856 70.184 100.664 69.512 100.28C66.824 98.744 64.664 96.248 63.032 92.792C61.4 89.336 60.584 83.816 60.584 76.232C60.584 69.512 58.712 64.808 54.968 62.12C51.224 59.336 46.76 57.944 41.576 57.944H9.608V96.68C9.608 97.928 9.224 98.984 8.456 99.848C7.688 100.616 6.68 101 5.432 101C4.088 101 2.936 100.616 1.976 99.848C1.016 98.984 0.535995 97.928 0.535995 96.68V4.52C0.535995 3.272 0.919996 2.264 1.688 1.496C2.552 0.631997 3.608 0.199997 4.856 0.199997H43.736C49.208 0.199997 54.104 1.4 58.424 3.8C62.744 6.104 66.104 9.32 68.504 13.448C71 17.576 72.248 22.232 72.248 27.416C72.248 33.56 70.616 38.984 67.352 43.688C64.184 48.296 60.008 51.464 54.824 53.192C59.048 54.824 62.504 57.608 65.192 61.544C67.88 65.384 69.272 70.088 69.368 75.656C69.464 81.608 69.848 85.784 70.52 88.184C71.288 90.584 72.488 92.264 74.12 93.224ZM44.168 50.024C47.528 49.736 50.648 48.632 53.528 46.712C56.408 44.792 58.712 42.2 60.44 38.936C62.168 35.672 63.032 31.928 63.032 27.704C63.032 22.232 61.16 17.72 57.416 14.168C53.768 10.52 48.968 8.696 43.016 8.696H9.608V50.024H44.168Z" fill="black"/>
</svg>
