<svg width="39" height="51" viewBox="0 0 39 51" fill="none" xmlns="http://www.w3.org/2000/svg">
<path d="M36.9428 47.112C37.6628 47.592 38.0228 48.192 38.0228 48.912C38.0228 49.152 37.9268 49.464 37.7348 49.848C37.5428 50.184 37.2788 50.448 36.9428 50.64C36.6068 50.832 36.2468 50.928 35.8628 50.928C35.3828 50.928 34.9748 50.832 34.6388 50.64C33.2948 49.872 32.2148 48.624 31.3988 46.896C30.5828 45.168 30.1748 42.408 30.1748 38.616C30.1748 35.256 29.2388 32.904 27.3668 31.56C25.4948 30.168 23.2628 29.472 20.6708 29.472H4.68681V48.84C4.68681 49.464 4.49481 49.992 4.11081 50.424C3.72681 50.808 3.22281 51 2.59881 51C1.92681 51 1.35081 50.808 0.870813 50.424C0.390813 49.992 0.150813 49.464 0.150813 48.84V2.76C0.150813 2.136 0.342813 1.632 0.726813 1.248C1.15881 0.815997 1.68681 0.599997 2.31081 0.599997H21.7508C24.4868 0.599997 26.9348 1.2 29.0948 2.4C31.2548 3.552 32.9348 5.16 34.1348 7.224C35.3828 9.288 36.0068 11.616 36.0068 14.208C36.0068 17.28 35.1908 19.992 33.5588 22.344C31.9748 24.648 29.8868 26.232 27.2948 27.096C29.4068 27.912 31.1348 29.304 32.4788 31.272C33.8228 33.192 34.5188 35.544 34.5668 38.328C34.6148 41.304 34.8068 43.392 35.1428 44.592C35.5268 45.792 36.1268 46.632 36.9428 47.112ZM21.9668 25.512C23.6468 25.368 25.2068 24.816 26.6468 23.856C28.0868 22.896 29.2388 21.6 30.1028 19.968C30.9668 18.336 31.3988 16.464 31.3988 14.352C31.3988 11.616 30.4628 9.36 28.5908 7.584C26.7668 5.76 24.3668 4.848 21.3908 4.848H4.68681V25.512H21.9668Z" fill="black"/>
</svg>
