<svg width="36" height="53" viewBox="0 0 36 53" fill="none" xmlns="http://www.w3.org/2000/svg">
<path d="M18.6612 52.72C15.2052 52.72 12.1332 52.144 9.44516 50.992C6.80516 49.84 4.23716 48.04 1.74116 45.592C1.16516 45.112 0.877156 44.536 0.877156 43.864C0.877156 43.288 1.09316 42.76 1.52516 42.28C2.00516 41.8 2.53316 41.56 3.10916 41.56C3.68516 41.56 4.21316 41.8 4.69316 42.28C8.43716 46.408 13.1172 48.472 18.7332 48.472C22.1892 48.472 25.0452 47.656 27.3012 46.024C29.6052 44.392 30.7572 42.256 30.7572 39.616C30.7572 37.552 30.1812 35.848 29.0292 34.504C27.9252 33.112 26.4612 31.984 24.6372 31.12C22.8132 30.256 20.4852 29.368 17.6532 28.456C14.5812 27.544 11.9892 26.536 9.87716 25.432C7.81316 24.328 6.13316 22.864 4.83716 21.04C3.54116 19.168 2.89316 16.816 2.89316 13.984C2.89316 11.44 3.56516 9.184 4.90916 7.216C6.30116 5.248 8.22116 3.712 10.6692 2.608C13.1652 1.456 16.0212 0.879997 19.2372 0.879997C22.1652 0.879997 24.9012 1.384 27.4452 2.392C30.0372 3.352 32.1012 4.744 33.6372 6.568C34.3572 7.384 34.7172 8.08 34.7172 8.656C34.7172 9.184 34.4772 9.688 33.9972 10.168C33.5172 10.6 32.9892 10.816 32.4132 10.816C31.9332 10.816 31.5252 10.648 31.1892 10.312C29.8932 8.776 28.1652 7.528 26.0052 6.568C23.8452 5.608 21.5892 5.128 19.2372 5.128C15.7332 5.128 12.8772 5.92 10.6692 7.504C8.46116 9.04 7.35716 11.152 7.35716 13.84C7.35716 16.624 8.41316 18.76 10.5252 20.248C12.6372 21.736 15.6612 23.104 19.5972 24.352C23.0052 25.36 25.7892 26.392 27.9492 27.448C30.1092 28.504 31.8612 30.016 33.2052 31.984C34.5972 33.904 35.2932 36.448 35.2932 39.616C35.2932 42.064 34.5732 44.296 33.1332 46.312C31.7412 48.28 29.7732 49.84 27.2292 50.992C24.7332 52.144 21.8772 52.72 18.6612 52.72Z" fill="black"/>
</svg>
