<svg width="70" height="105" viewBox="0 0 70 105" fill="none" xmlns="http://www.w3.org/2000/svg">
<path d="M35.752 104.44C28.84 104.44 22.696 103.288 17.32 100.984C12.04 98.68 6.90399 95.08 1.91199 90.184C0.75999 89.224 0.18399 88.072 0.18399 86.728C0.18399 85.576 0.615991 84.52 1.47999 83.56C2.43999 82.6 3.49599 82.12 4.64799 82.12C5.79999 82.12 6.85599 82.6 7.81599 83.56C15.304 91.816 24.664 95.944 35.896 95.944C42.808 95.944 48.52 94.312 53.032 91.048C57.64 87.784 59.944 83.512 59.944 78.232C59.944 74.104 58.792 70.696 56.488 68.008C54.28 65.224 51.352 62.968 47.704 61.24C44.056 59.512 39.4 57.736 33.736 55.912C27.592 54.088 22.408 52.072 18.184 49.864C14.056 47.656 10.696 44.728 8.10399 41.08C5.51199 37.336 4.21599 32.632 4.21599 26.968C4.21599 21.88 5.55999 17.368 8.24799 13.432C11.032 9.49599 14.872 6.42399 19.768 4.21599C24.76 1.91199 30.472 0.759995 36.904 0.759995C42.76 0.759995 48.232 1.768 53.32 3.784C58.504 5.704 62.632 8.488 65.704 12.136C67.144 13.768 67.864 15.16 67.864 16.312C67.864 17.368 67.384 18.376 66.424 19.336C65.464 20.2 64.408 20.632 63.256 20.632C62.296 20.632 61.48 20.296 60.808 19.624C58.216 16.552 54.76 14.056 50.44 12.136C46.12 10.216 41.608 9.256 36.904 9.256C29.896 9.256 24.184 10.84 19.768 14.008C15.352 17.08 13.144 21.304 13.144 26.68C13.144 32.248 15.256 36.52 19.48 39.496C23.704 42.472 29.752 45.208 37.624 47.704C44.44 49.72 50.008 51.784 54.328 53.896C58.648 56.008 62.152 59.032 64.84 62.968C67.624 66.808 69.016 71.896 69.016 78.232C69.016 83.128 67.576 87.592 64.696 91.624C61.912 95.56 57.976 98.68 52.888 100.984C47.896 103.288 42.184 104.44 35.752 104.44Z" fill="black"/>
</svg>
