<svg width="40" height="51" viewBox="0 0 40 51" fill="none" xmlns="http://www.w3.org/2000/svg">
<path d="M37.1534 0.599997C37.7774 0.599997 38.2814 0.791997 38.6654 1.176C39.0974 1.56 39.3134 2.064 39.3134 2.688C39.3134 3.312 39.0974 3.816 38.6654 4.2C38.2814 4.536 37.7774 4.704 37.1534 4.704H22.2494V48.84C22.2494 49.464 22.0334 49.992 21.6014 50.424C21.1694 50.808 20.6414 51 20.0174 51C19.3454 51 18.7934 50.808 18.3614 50.424C17.9774 49.992 17.7854 49.464 17.7854 48.84V4.704H2.88144C2.25744 4.704 1.72944 4.512 1.29744 4.128C0.913438 3.744 0.721438 3.24 0.721438 2.616C0.721438 2.04 0.913438 1.56 1.29744 1.176C1.72944 0.791997 2.25744 0.599997 2.88144 0.599997H37.1534Z" fill="currentColor"/>
</svg>
