<svg width="79" height="101" viewBox="0 0 79 101" fill="none" xmlns="http://www.w3.org/2000/svg">
<path d="M73.76 0.199997C75.008 0.199997 76.016 0.583998 76.784 1.352C77.648 2.12 78.08 3.128 78.08 4.376C78.08 5.624 77.648 6.632 76.784 7.4C76.016 8.072 75.008 8.408 73.76 8.408H43.952V96.68C43.952 97.928 43.52 98.984 42.656 99.848C41.792 100.616 40.736 101 39.488 101C38.144 101 37.04 100.616 36.176 99.848C35.408 98.984 35.024 97.928 35.024 96.68V8.408H5.216C3.968 8.408 2.912 8.024 2.048 7.256C1.28 6.488 0.895996 5.48 0.895996 4.232C0.895996 3.08 1.28 2.12 2.048 1.352C2.912 0.583998 3.968 0.199997 5.216 0.199997H73.76Z" fill="black"/>
</svg>
