<svg width="38" height="52" viewBox="0 0 38 52" fill="none" xmlns="http://www.w3.org/2000/svg">
<path d="M35.7439 0.599997C36.3679 0.599997 36.8719 0.815997 37.2559 1.248C37.6879 1.632 37.9039 2.136 37.9039 2.76V32.568C37.9039 36.072 37.0639 39.288 35.3839 42.216C33.7039 45.144 31.4239 47.448 28.5439 49.128C25.6639 50.808 22.4959 51.648 19.0399 51.648C15.5359 51.648 12.3439 50.808 9.46394 49.128C6.58394 47.448 4.30394 45.144 2.62394 42.216C0.943938 39.288 0.103938 36.072 0.103938 32.568V2.76C0.103938 2.136 0.295938 1.632 0.679938 1.248C1.11194 0.815997 1.68794 0.599997 2.40794 0.599997C2.98394 0.599997 3.48794 0.815997 3.91994 1.248C4.35194 1.632 4.56794 2.136 4.56794 2.76V32.568C4.56794 35.256 5.21594 37.728 6.51194 39.984C7.80794 42.24 9.55994 44.04 11.7679 45.384C14.0239 46.68 16.4479 47.328 19.0399 47.328C21.6799 47.328 24.1039 46.68 26.3119 45.384C28.5679 44.04 30.3439 42.24 31.6399 39.984C32.9839 37.728 33.6559 35.256 33.6559 32.568V2.76C33.6559 2.136 33.8479 1.632 34.2319 1.248C34.6159 0.815997 35.1199 0.599997 35.7439 0.599997Z" fill="currentColor"/>
</svg>
