<svg width="66" height="51" viewBox="0 0 66 51" fill="none" xmlns="http://www.w3.org/2000/svg">
<path d="M63.3185 0.455998C63.9905 0.455998 64.5425 0.647999 64.9745 1.032C65.4065 1.416 65.6225 1.944 65.6225 2.616L65.4785 3.552L49.5665 49.632C49.4225 50.064 49.1585 50.4 48.7745 50.64C48.4385 50.88 48.0545 51 47.6225 51C46.5185 51 45.7985 50.544 45.4625 49.632L33.0065 18.888L20.5505 49.632C20.1185 50.544 19.3985 51 18.3905 51C17.9585 51 17.5505 50.88 17.1665 50.64C16.8305 50.4 16.6145 50.064 16.5185 49.632L0.606469 3.552C0.462469 3.264 0.390469 2.976 0.390469 2.688C0.390469 2.016 0.630469 1.488 1.11047 1.104C1.63847 0.671999 2.19047 0.455998 2.76647 0.455998C3.24647 0.455998 3.67847 0.575998 4.06247 0.815998C4.44647 1.056 4.71047 1.392 4.85447 1.824L18.9665 43.008L31.0625 12.84C31.4945 11.88 32.1665 11.424 33.0785 11.472C33.5585 11.424 33.9665 11.544 34.3025 11.832C34.6865 12.072 34.9745 12.408 35.1665 12.84L47.1905 43.008L61.1585 1.824C61.5425 0.911998 62.2625 0.455998 63.3185 0.455998Z" fill="currentColor"/>
</svg>
