<svg width="39" height="51" viewBox="0 0 39 51" fill="none" xmlns="http://www.w3.org/2000/svg">
<path d="M38.3426 2.472C38.3426 2.808 38.1986 3.264 37.9106 3.84L21.8546 25.944V48.84C21.8546 49.464 21.6386 49.992 21.2066 50.424C20.7746 50.808 20.2466 51 19.6226 51C18.9986 51 18.4706 50.808 18.0386 50.424C17.6546 49.992 17.4626 49.464 17.4626 48.84V26.016L1.33463 3.984C0.950625 3.552 0.758625 3.048 0.758625 2.472C0.758625 1.896 0.998625 1.392 1.47863 0.959996C1.95863 0.527996 2.48663 0.311996 3.06263 0.311996C3.83063 0.311996 4.43063 0.647996 4.86263 1.32L19.7666 21.624L34.3106 1.32C34.8386 0.647996 35.4626 0.311996 36.1826 0.311996C36.7586 0.311996 37.2626 0.551997 37.6946 1.032C38.1266 1.464 38.3426 1.944 38.3426 2.472Z" fill="black"/>
</svg>
