<svg width="24" height="24" viewBox="0 0 24 24" fill="none" xmlns="http://www.w3.org/2000/svg">
<circle cx="12" cy="12" r="11.5" stroke="black" stroke-dasharray="8 4"/>
<path d="M15 10H14.5V9C14.5 7.62 13.38 6.5 12 6.5C10.62 6.5 9.5 7.62 9.5 9V10H9C8.45 10 8 10.45 8 11V16C8 16.55 8.45 17 9 17H15C15.55 17 16 16.55 16 16V11C16 10.45 15.55 10 15 10ZM12 14.5C11.45 14.5 11 14.05 11 13.5C11 12.95 11.45 12.5 12 12.5C12.55 12.5 13 12.95 13 13.5C13 14.05 12.55 14.5 12 14.5ZM13.55 10H10.45V9C10.45 8.145 11.145 7.45 12 7.45C12.855 7.45 13.55 8.145 13.55 9V10Z" fill="black"/>
</svg>
